<?xml version="1.0" standalone="no"?>
<!DOCTYPE svg PUBLIC "-//W3C//DTD SVG 20010904//EN"
 "http://www.w3.org/TR/2001/REC-SVG-20010904/DTD/svg10.dtd">
<svg version="1.0" xmlns="http://www.w3.org/2000/svg"
 width="1024.000000pt" height="1024.000000pt" viewBox="0 0 1024.000000 1024.000000"
 preserveAspectRatio="xMidYMid meet">
<metadata>
Created by potrace 1.11, written by Peter Selinger 2001-2013
</metadata>
<g transform="translate(0.000000,1024.000000) scale(0.100000,-0.100000)"
fill="#000000" stroke="none">
<path d="M5007 9904 c-1 -1 -40 -5 -87 -8 -87 -7 -293 -37 -378 -57 -26 -6
-54 -12 -62 -14 -11 -2 -350 -85 -405 -99 -5 -2 -17 -6 -25 -9 -8 -3 -35 -11
-60 -17 -25 -6 -63 -17 -85 -25 -71 -24 -349 -126 -370 -136 -20 -8 -140 -49
-160 -54 -5 -1 -17 -5 -25 -8 -18 -8 -231 -78 -245 -81 -5 -1 -26 -7 -45 -13
-19 -6 -69 -21 -110 -33 -41 -12 -82 -24 -90 -28 -8 -3 -19 -7 -25 -7 -5 -1
-17 -4 -25 -7 -8 -4 -82 -28 -165 -54 -156 -49 -299 -103 -397 -148 -31 -14
-61 -26 -65 -26 -5 0 -15 -6 -21 -12 -7 -7 -16 -14 -20 -14 -26 -5 -52 -18
-52 -25 0 -5 -5 -9 -10 -9 -15 0 -132 -74 -220 -139 -76 -57 -230 -204 -288
-276 -48 -59 -157 -227 -155 -237 2 -4 -1 -8 -5 -8 -7 0 -91 -168 -123 -245
-4 -11 -17 -43 -29 -71 -12 -28 -23 -58 -24 -65 -2 -8 -9 -27 -15 -44 -7 -16
-14 -34 -15 -40 -2 -5 -6 -17 -9 -25 -8 -19 -137 -391 -140 -405 -1 -5 -8 -23
-14 -40 -6 -16 -30 -82 -53 -145 -23 -63 -45 -124 -50 -135 -5 -11 -18 -42
-28 -70 -11 -27 -36 -90 -56 -140 -20 -49 -36 -96 -36 -102 0 -7 -5 -13 -12
-13 -6 0 -9 -3 -6 -6 3 -3 -12 -49 -34 -102 -132 -323 -230 -650 -254 -847 -3
-22 -7 -56 -10 -75 -31 -224 -19 -557 30 -815 2 -11 6 -36 10 -55 3 -19 9 -46
12 -60 3 -14 7 -34 9 -45 1 -11 8 -40 15 -65 7 -25 13 -49 14 -55 2 -5 8 -30
16 -55 7 -25 24 -83 37 -130 14 -47 34 -111 45 -144 11 -32 21 -63 22 -70 2
-12 133 -412 143 -436 4 -8 7 -17 7 -20 1 -3 10 -27 20 -55 10 -27 29 -81 43
-120 13 -38 29 -81 35 -95 6 -14 12 -30 14 -36 1 -6 10 -29 19 -50 9 -22 21
-48 25 -59 50 -122 277 -556 301 -575 3 -3 12 -16 19 -30 13 -25 165 -254 182
-275 5 -5 26 -35 48 -65 22 -30 43 -60 47 -65 84 -109 123 -159 202 -255 52
-63 101 -122 110 -131 9 -10 32 -36 51 -59 19 -24 46 -55 60 -70 166 -181 231
-250 323 -344 59 -61 107 -111 107 -112 0 -2 142 -141 261 -256 42 -40 118
-111 170 -158 51 -47 105 -96 120 -110 15 -14 40 -34 55 -45 16 -11 36 -27 45
-37 55 -53 306 -228 328 -228 5 0 11 -4 13 -8 1 -5 50 -29 108 -54 202 -89
383 -130 670 -154 150 -13 563 -7 755 11 28 2 82 7 120 10 89 7 171 15 211 20
17 2 57 7 90 10 32 4 109 13 169 21 61 8 133 16 160 18 28 3 64 7 80 10 17 3
50 8 75 11 85 12 150 23 245 41 148 29 402 97 460 124 11 5 38 16 60 24 197
70 451 193 666 324 87 53 213 142 217 154 2 4 8 8 14 8 5 0 16 6 23 13 8 6 20
17 27 22 24 18 132 109 167 140 56 49 282 279 336 341 51 59 165 201 200 250
11 15 25 32 30 38 6 6 25 31 41 56 17 25 56 82 87 128 32 45 57 86 57 91 0 5
4 11 8 13 16 6 151 242 229 398 86 174 132 276 210 470 70 173 226 622 237
682 2 15 7 31 9 36 11 17 104 381 143 562 34 152 41 188 49 247 2 12 6 36 10
53 7 33 13 65 19 115 11 86 16 123 21 155 32 215 48 751 30 965 -4 44 -8 103
-10 130 -2 28 -6 68 -9 90 -3 22 -8 56 -10 75 -5 38 -15 100 -22 134 -2 11 -8
46 -14 76 -6 30 -12 65 -15 78 -3 12 -7 31 -10 43 -2 11 -7 29 -10 39 -3 10
-8 29 -10 41 -17 87 -167 542 -187 563 -4 6 -8 17 -9 25 0 9 -11 38 -24 66
-13 27 -21 53 -19 57 3 5 0 8 -5 8 -6 0 -11 7 -11 15 0 8 -4 23 -10 33 -5 9
-40 85 -77 167 -70 154 -165 339 -223 430 -11 17 -27 45 -36 63 -9 17 -20 32
-25 32 -5 0 -9 5 -9 11 0 12 -60 103 -72 107 -4 2 -8 8 -8 13 0 9 -89 128
-119 160 -9 9 -32 36 -51 60 -47 58 -271 282 -339 339 -30 25 -64 55 -77 68
-13 12 -28 22 -33 22 -6 0 -14 6 -18 13 -4 7 -42 37 -83 67 -41 30 -77 57 -80
60 -8 9 -260 174 -310 202 -25 14 -66 38 -92 52 -27 14 -68 37 -93 51 -25 14
-52 25 -60 25 -7 0 -15 4 -17 8 -10 24 -524 225 -629 247 -9 2 -47 12 -85 24
-78 23 -333 87 -379 95 -35 7 -37 7 -170 36 -55 12 -111 24 -125 26 -14 3 -61
12 -105 21 -44 9 -93 17 -110 19 -16 2 -50 8 -75 13 -25 5 -70 11 -100 15 -30
3 -64 8 -76 10 -51 10 -428 27 -437 20z"/>
</g>
</svg>
