<svg xmlns="http://www.w3.org/2000/svg" viewBox="0 0"><defs><style>.cls-1{fill:#fff;}.cls-2{fill:#fff;}</style></defs><title>backBtn</title><g id="Layer_2" data-name="Layer 2"><g id="Layer_1-2" data-name="Layer 1"><path class="cls-1" d="M54.38,33.34C35,33.34,17.47,26.24,2,12.15a.75.75,0,0,1,0-1.06A.77.77,0,0,1,3,11C21.21,27.63,42.39,34.34,66,31a.75.75,0,1,1,.21,1.49A83.36,83.36,0,0,1,54.38,33.34Z"/><path class="cls-1" d="M4.07,29.4a.75.75,0,0,1-.73-.58c-.28-1.15-.58-2.31-.87-3.46C.81,18.9-.91,12.22.56,4.93a.75.75,0,0,1,.21-.39c3.47-3.38,7.79-3.21,12-3,3.44.14,6.68.26,9.55-1.4A.75.75,0,0,1,23,1.4C19.8,3.28,16.18,3.14,12.68,3,8.71,2.84,5,2.69,2,5.46.66,12.32,2.32,18.76,3.92,25c.3,1.17.59,2.33.87,3.49a.76.76,0,0,1-.55.91Z"/><path class="cls-2" d="M87.87,39a4.94,4.94,0,0,1-3-.94A5.2,5.2,0,0,1,83,35.46c0,.23,0,.44,0,.65a3.6,3.6,0,0,0,0,.65c0,.29,0,.58,0,.86s0,.58,0,.87v.24H81.68v-.24c0-1.23.07-2.51.07-3.84V22.26a10.38,10.38,0,0,0-1.56.29l-.29.07-.07-.14.43-.55h2.27a4.37,4.37,0,0,0,.51,0l0,.22c0,.44,0,1.08-.07,1.89s0,1.57,0,2v4a5.45,5.45,0,0,1,1.87-2.58,4.89,4.89,0,0,1,3-1,5.1,5.1,0,0,1,2.82.81,5.7,5.7,0,0,1,2,2.25,7,7,0,0,1,.72,3.18,7.06,7.06,0,0,1-.71,3.19,5.54,5.54,0,0,1-2,2.23A5.07,5.07,0,0,1,87.87,39Zm-.34-.55a3.89,3.89,0,0,0,2.32-.75,4.94,4.94,0,0,0,1.63-2,6.91,6.91,0,0,0,.59-2.91,7,7,0,0,0-.59-2.92,5.17,5.17,0,0,0-1.63-2,4,4,0,0,0-4.66,0,5.26,5.26,0,0,0-1.65,2.05,6.74,6.74,0,0,0-.62,2.91,6.68,6.68,0,0,0,.6,2.85,5.17,5.17,0,0,0,1.65,2.07A3.88,3.88,0,0,0,87.53,38.42Z"/><path class="cls-2" d="M99.53,39a4.27,4.27,0,0,1-2.89-.87,2.79,2.79,0,0,1-1-2.23,2.66,2.66,0,0,1,.85-2.06,4.92,4.92,0,0,1,2.13-1.1,16.62,16.62,0,0,1,2.93-.42,11.23,11.23,0,0,0,2-.24,3.14,3.14,0,0,0,1.22-.49,1,1,0,0,0,.44-.87,4.32,4.32,0,0,0-.83-2.74,2.63,2.63,0,0,0-2.17-1.06,4.2,4.2,0,0,0-2.09.56A6.93,6.93,0,0,0,98.27,29a10.11,10.11,0,0,0-1.43,2.14l-.31-.1,1.32-4.94h.55l0,.07-.82,2.19a2.5,2.5,0,0,0,.77-.41,9.59,9.59,0,0,1,1.67-1.05,4.77,4.77,0,0,1,2-.39,3.82,3.82,0,0,1,3.07,1.31,5.24,5.24,0,0,1,1.13,3.54v7.05a11.67,11.67,0,0,0,1.61-.29l.14,0,.12,0,0,.15-.41.55h-2.74v-.24c0-.31,0-.61,0-.93s0-.62,0-.92a2.88,2.88,0,0,0,0-.59c0-.2,0-.4,0-.61a4.82,4.82,0,0,1-2.1,2.6A6.5,6.5,0,0,1,99.53,39Zm.38-.58a5.51,5.51,0,0,0,2.68-.66,4.82,4.82,0,0,0,2.58-4.33l0-1.63a3.36,3.36,0,0,1-1.17.56,9.84,9.84,0,0,1-2,.32,9.41,9.41,0,0,0-4,1,2.41,2.41,0,0,0-1.21,2.21,2.28,2.28,0,0,0,.82,1.87A3.44,3.44,0,0,0,99.91,38.44Z"/><path class="cls-2" d="M120.94,31.24a7.66,7.66,0,0,0-3.08-3.66,4,4,0,0,0-2.08-.61,3.64,3.64,0,0,0-2.22.74A5,5,0,0,0,112,29.76a7.83,7.83,0,0,0,0,5.94,5,5,0,0,0,1.62,2.08,3.81,3.81,0,0,0,2.28.76,4,4,0,0,0,2.1-.64,7.19,7.19,0,0,0,1.82-1.63,8.56,8.56,0,0,0,1.24-2l.36.1L120,39.42h-.58l0-.09.94-2.28a1.76,1.76,0,0,0-.87.43,8.05,8.05,0,0,1-1.54,1.07,4.39,4.39,0,0,1-2,.42,5.49,5.49,0,0,1-3-.82,5.71,5.71,0,0,1-2.07-2.23,6.6,6.6,0,0,1-.76-3.19,6.68,6.68,0,0,1,.76-3.19,5.68,5.68,0,0,1,2.06-2.25,5.5,5.5,0,0,1,2.92-.8,4.84,4.84,0,0,1,2.18.43A8.15,8.15,0,0,1,119.62,28a3.36,3.36,0,0,0,.36.27.88.88,0,0,0,.26.13l-.84-2.2,0-.08H120l1.3,5Z"/><path class="cls-2" d="M125.4,38.49c0-1.46.07-2.74.07-3.84V22.26a10.77,10.77,0,0,0-1.53.29l-.31.07-.08-.14.46-.55h2.32a3.92,3.92,0,0,0,.46,0l0,.22c0,.44,0,1.08-.07,1.89s0,1.57,0,2v6.48h2.21l2.83-3.15.5-.55a6.05,6.05,0,0,0,.48-.57l.48-.58.48-.58a2.68,2.68,0,0,0-.45.05l-.58.1-.82.21-.07-.16.46-.53h2.69v.21c-.15.12-.44.37-.87.77s-.81.74-1.19,1.11a12.13,12.13,0,0,0-1,1.08l-2.07,2.23,3.15,3.72c.24.27.45.5.65.69q1,1,2,2v.24h-3.43l-.41-.55.05-.12.48.09.5.12a6.08,6.08,0,0,0,.87.12L128.91,33H126.7v1.68q0,1.68.09,3.84v.24H125.4Z"/></g></g></svg>