<?xml version="1.0" encoding="utf-8"?>
<!-- Generator: Adobe Illustrator 23.0.3, SVG Export Plug-In . SVG Version: 6.00 Build 0)  -->
<svg version="1.1" id="Layer_1" xmlns="http://www.w3.org/2000/svg" xmlns:xlink="http://www.w3.org/1999/xlink" x="0px" y="0px"
	 viewBox="0 0 1920 1080" enable-background="new 0 0 1920 1080" xml:space="preserve">
<g>
	<g>
		<path fill="#FFFFFF" d="M938.6,900.4c-0.3,0-0.5-0.1-0.7-0.3c-3.9-4-7.8-7.9-11.6-11.9c-8.5-8.7-17.3-17.7-26-26.5
			c-15-15-30.4-30.1-45.3-44.8c-6.3-6.2-12.7-12.5-19-18.7c-0.4-0.4-0.4-1,0-1.4c0.4-0.4,1-0.4,1.4,0c6.3,6.2,12.7,12.5,19,18.7
			c14.9,14.7,30.2,29.8,45.3,44.8c8.8,8.7,17.5,17.8,26,26.5c3.9,4,7.7,8,11.6,11.9c0.4,0.4,0.4,1,0,1.4
			C939.1,900.3,938.8,900.4,938.6,900.4z"/>
	</g>
	<g>
		<path fill="#FFFFFF" d="M819.9,789.6c-1.1,0-2.2-0.2-3.2-0.4c-1.2-0.2-2.4-0.4-3.4-0.2c-0.5,0.1-1.1-0.3-1.1-0.8s0.3-1.1,0.8-1.1
			c1.4-0.2,2.8,0,4.1,0.3c2.2,0.4,4.2,0.7,6.5-0.8l-3.3-3.3c-2.9-2.9-5.7-5.7-8.6-8.6c-19-18.8-38-37.6-57-56.5l-19-18.8
			c-0.4-0.4-0.4-1,0-1.4c0.4-0.4,1-0.4,1.4,0l19,18.8c19,18.8,38,37.6,57,56.5c2.9,2.8,5.7,5.7,8.6,8.6l4.1,4.1
			c0.2,0.2,0.3,0.5,0.3,0.7c0,0.3-0.1,0.5-0.3,0.7C823.7,789.2,821.7,789.6,819.9,789.6z"/>
	</g>
	<g>
		<path fill="#FFFFFF" d="M721.4,685.5c-0.3,0-0.5-0.1-0.7-0.3l-88.6-87.8c-0.4-0.4-0.4-1,0-1.4s1-0.4,1.4,0l88.6,87.8
			c0.4,0.4,0.4,1,0,1.4C721.9,685.4,721.6,685.5,721.4,685.5z"/>
	</g>
	<g>
		<path fill="#FFFFFF" d="M417.2,383.6c-0.3,0-0.5-0.1-0.7-0.3c-2.4-2.4-4.9-4.7-7.4-7.1c-5.3-5.1-10.8-10.4-16.1-15.7
			c-14.4-14.5-29.1-29.4-43.2-43.7c-5.7-5.8-11.5-11.6-17.2-17.4c-0.4-0.4-0.4-1,0-1.4c0.4-0.4,1-0.4,1.4,0
			c5.7,5.8,11.5,11.6,17.2,17.4c14.1,14.3,28.8,29.2,43.2,43.7c5.3,5.3,10.8,10.6,16.1,15.7c2.5,2.4,4.9,4.7,7.4,7.1
			c0.4,0.4,0.4,1,0,1.4C417.7,383.5,417.4,383.6,417.2,383.6z"/>
	</g>
	<g>
		<path fill="#FFFFFF" d="M1200.5,618.1c-0.1,0-0.3,0-0.4-0.1c-0.5-0.2-0.7-0.8-0.5-1.3c7.2-14.5,20.6-18.4,32.9-20.3
			c14.9-2.3,23.9-7.7,29-17.5c4.2-7.9,6.5-17,7-27.8c0-0.6,0.5-1,1-0.9c0.6,0,1,0.5,0.9,1c-0.6,11-2.9,20.4-7.2,28.6
			c-7.1,13.5-20.8,17-30.5,18.5c-12.3,1.9-24.7,5.5-31.4,19.2C1201.2,617.9,1200.9,618.1,1200.5,618.1z"/>
	</g>
	<g>
		<path fill="#FFFFFF" d="M1153.4,674.6c-0.5,0-1-0.4-1-0.9c0-0.6,0.4-1,0.9-1.1c1.1-0.1,2.2-0.1,3.3-0.2c2.4-0.1,4.6-0.2,6.8-0.7
			c16.3-3.6,24.9-6.4,28.3-27.3c0.4-2.6,1-5.1,1.6-7.6c0.3-1.2,0.5-2.3,0.8-3.5c0.1-0.5,0.6-0.9,1.2-0.8c0.5,0.1,0.9,0.6,0.8,1.2
			c-0.2,1.2-0.5,2.3-0.8,3.5c-0.6,2.4-1.1,5-1.5,7.4c-3.6,22.2-13.2,25.3-29.8,29c-2.3,0.5-4.8,0.6-7.1,0.7
			C1155.6,674.4,1154.6,674.5,1153.4,674.6C1153.5,674.6,1153.5,674.6,1153.4,674.6z"/>
	</g>
	<g>
		<path fill="#FFFFFF" d="M745.7,157c-0.5,0-1-0.4-1-1c0-0.6,0.4-1,1-1l64.3-3.1c0.5,0,1,0.4,1,1c0,0.6-0.4,1-1,1L745.7,157
			C745.7,157,745.7,157,745.7,157z"/>
	</g>
	<g>
		<path fill="#FFFFFF" d="M1064,380.5c-1.5,0-3.1,0-4.6,0c-0.6,0-1-0.5-1-1s0.5-1,1-1c19.3,0.3,38.8-1.1,57.9-3.9
			c0.5-0.1,1.1,0.3,1.1,0.8c0.1,0.5-0.3,1.1-0.8,1.1C1099.9,379.2,1081.9,380.5,1064,380.5z"/>
	</g>
	<g>
		<path fill="#FFFFFF" d="M1084.4,635.4c-0.1,0-0.3,0-0.4-0.1c-0.5-0.2-0.8-0.8-0.5-1.3c3.9-9.5,4.4-19.8,1.5-32.3
			c-2.1-9.3-3.4-17.7,1.7-25.8c0.3-0.5,0.9-0.6,1.4-0.3c0.5,0.3,0.6,0.9,0.3,1.4c-4.7,7.5-3.4,15.5-1.4,24.3
			c2.9,12.9,2.4,23.6-1.6,33.5C1085.2,635.1,1084.8,635.4,1084.4,635.4z"/>
	</g>
	<g>
		<path fill="#FFFFFF" d="M1146.4,351.5c-0.2,0-0.3,0-0.4-0.1c-0.7-0.4-1.4-0.8-2.1-1.2c-1.3-0.9-2.6-1.7-3.8-1.7
			c-15.3-0.3-30-4.1-44.3-7.8c-4.3-1.1-8.8-2.3-13.2-3.3c-0.5-0.1-0.9-0.7-0.7-1.2c0.1-0.5,0.7-0.9,1.2-0.7c4.4,1,8.9,2.2,13.2,3.3
			c14.2,3.7,28.8,7.4,43.8,7.8c1.7,0,3.3,1,4.8,2c0.7,0.4,1.3,0.8,1.9,1.1c0.5,0.2,0.7,0.8,0.4,1.3
			C1147.1,351.3,1146.7,351.5,1146.4,351.5z"/>
	</g>
	<g>
		<path fill="#FFFFFF" d="M996.6,292.7c-0.3,0-0.6-0.1-0.8-0.4c-0.7-0.9-1.5-1.8-2.3-2.6c-1.7-1.9-3.5-3.9-4.8-6.2
			c-7.1-13-7.3-23.8-0.9-33.9c2.6-4.1,6.1-7.6,11.3-11.2c0.5-0.3,1.1-0.2,1.4,0.3c0.3,0.5,0.2,1.1-0.3,1.4c-5,3.5-8.3,6.8-10.8,10.6
			c-6.1,9.6-5.8,19.5,1,31.9c1.1,2.1,2.8,3.9,4.5,5.8c0.8,0.9,1.6,1.8,2.3,2.7c0.4,0.4,0.3,1.1-0.1,1.4
			C997.1,292.6,996.8,292.7,996.6,292.7z"/>
	</g>
	<g>
		<path fill="#FFFFFF" d="M923.9,151c-2.8,0-5.6,0-8.4-0.1c-2.7,0-5.6-0.1-8.4-0.1h-0.8c-0.3,0-0.7-0.2-0.9-0.5
			c-0.2-0.3-0.2-0.7,0-1l0.8-1.6c0.2-0.5,0.8-0.7,1.3-0.4c0.5,0.2,0.7,0.8,0.4,1.3l-0.1,0.1c2.5,0,5.1,0.1,7.6,0.1
			c6.2,0.1,12.7,0.2,19-0.2c9.3-0.7,18.5-1.1,27.7,0.1c0.5,0.1,0.9,0.6,0.9,1.1s-0.6,0.9-1.1,0.9c-9-1.3-18-0.8-27.2-0.1
			C931.2,150.9,927.5,151,923.9,151z"/>
	</g>
	<g>
		<path fill="#FFFFFF" d="M618.3,588.3c-0.5,0-1.1,0-1.6,0c-0.9,0-1.8-0.1-2.7,0c-0.5,0.1-1-0.3-1.1-0.9c-0.1-0.5,0.3-1,0.9-1.1
			c1-0.1,2-0.1,3,0c1.6,0.1,3.2,0.1,4.7-0.5l-53-51.8c-0.4-0.4-0.4-1,0-1.4c0.4-0.4,1-0.4,1.4,0l53.9,52.7c0.2,0.2,0.3,0.5,0.3,0.8
			c0,0.3-0.2,0.6-0.4,0.7C621.9,588.1,620.1,588.3,618.3,588.3z"/>
	</g>
	<g>
		<path fill="#FFFFFF" d="M987.2,822c-0.1,0-0.2,0-0.3,0c-0.5-0.2-0.8-0.7-0.7-1.2c2.1-7.2,2.6-14.6,1.3-21.4
			c-2.2-11.7-1.6-22.1,1.9-31.9c0.2-0.5,0.8-0.8,1.3-0.6c0.5,0.2,0.8,0.8,0.6,1.3c-3.4,9.4-4,19.6-1.8,30.9
			c1.4,7.1,0.9,14.8-1.3,22.4C988,821.7,987.6,822,987.2,822z"/>
	</g>
	<g>
		<path fill="#FFFFFF" d="M609.3,171.9c-0.4,0-0.8-0.3-1-0.7c-0.1-0.5,0.2-1.1,0.7-1.2c10.2-2.8,20.9-3.7,31.1-4.7
			c6.8-0.6,13.9-1.2,20.7-2.4c0.5-0.1,1.1,0.3,1.2,0.8c0.1,0.5-0.3,1.1-0.8,1.2c-6.9,1.2-14,1.8-20.9,2.4
			c-10.2,0.9-20.7,1.9-30.8,4.6C609.4,171.9,609.3,171.9,609.3,171.9z"/>
	</g>
	<g>
		<path fill="#FFFFFF" d="M1396.5,339c-0.5,0-1-0.4-1-0.9c0-0.6,0.4-1,0.9-1.1c6.9-0.6,13.8-2.3,20.4-3.9c2-0.5,4.1-1,6.1-1.5
			c3.8-0.9,7.7-2.1,11.4-3.3c6-1.9,12.1-3.8,18.5-4.6c0.6-0.1,1,0.3,1.1,0.9c0.1,0.5-0.3,1-0.9,1.1c-6.2,0.7-12.3,2.7-18.2,4.5
			c-3.7,1.2-7.6,2.4-11.5,3.3c-2,0.5-4.1,1-6.1,1.5C1410.6,336.6,1403.7,338.4,1396.5,339C1396.6,339,1396.5,339,1396.5,339z"/>
	</g>
	<g>
		<path fill="#FFFFFF" d="M790.3,385.5c-5.5,0-11-0.1-16.5-0.6c-1.9-0.1-3.8-0.1-5.8,0c-4.5,0.2-9.2,0.4-13.5-2.2
			c-0.5-0.3-0.6-0.9-0.3-1.4c0.3-0.5,0.9-0.6,1.4-0.3c3.8,2.3,8,2.1,12.4,1.9c2-0.1,4-0.2,6,0c9.2,0.7,18.6,0.6,27.7,0.4
			c3.8-0.1,7.6-0.1,11.4-0.1c0.6,0,1,0.4,1,1s-0.4,1-1,1c-3.8,0-7.7,0.1-11.4,0.1C798,385.4,794.2,385.5,790.3,385.5z"/>
	</g>
	<g>
		<path fill="#FFFFFF" d="M997,942c-2,0-4-0.5-6.4-1.5c-14.1-6.3-28.4-12.6-42.3-18.6c-10.8-4.7-22-9.6-32.9-14.5
			c-7.8-3.5-14.2-4.6-20.7-3.9c-4.7,0.6-9.5,0.9-14.2,1.2c-2.1,0.1-4.2,0.3-6.2,0.4c-0.6,0-1-0.4-1.1-0.9c0-0.5,0.4-1,0.9-1.1
			c2.1-0.2,4.2-0.3,6.3-0.4c4.6-0.3,9.4-0.6,14.1-1.2c6.9-0.8,13.6,0.4,21.7,4c11,4.9,22.1,9.7,32.9,14.5
			c13.9,6.1,28.2,12.4,42.3,18.7c2.5,1.1,4.5,1.5,6.6,1.3c9.3-0.9,18.7-1.9,27.9-2.9l9.8-1c0.6-0.1,1,0.3,1.1,0.9
			c0.1,0.5-0.3,1-0.9,1.1l-9.8,1c-9.1,1-18.6,2-27.9,2.9C997.9,941.9,997.4,942,997,942z"/>
	</g>
	<g>
		<path fill="#FFFFFF" d="M878.3,945c-5.1,0-10.2-0.4-15.2-0.8c-3.3-0.3-6.6-0.5-9.9-0.7c-0.7,0-1.5,0.2-2.4,0.4
			c-0.4,0.1-0.9,0.2-1.3,0.3c-0.5,0.1-1.1-0.2-1.2-0.8c-0.1-0.5,0.2-1.1,0.8-1.2c0.4-0.1,0.8-0.2,1.2-0.3c1-0.3,1.9-0.5,3-0.5
			c3.3,0.1,6.7,0.4,10,0.7c16.3,1.3,31.6,2.4,45.9-8.2c4.2-3.2,9.1-5.5,13.8-7.7c5.2-2.5,10.6-5.1,15.1-8.8c0.4-0.4,1.1-0.3,1.4,0.1
			c0.4,0.4,0.3,1.1-0.1,1.4c-4.7,3.9-10.2,6.5-15.5,9.1c-4.6,2.2-9.3,4.5-13.4,7.5C900.1,943.2,889.2,945,878.3,945z"/>
	</g>
	<g>
		<path fill="#FFFFFF" d="M1481.2,211.9c-0.1,0-0.2,0-0.3,0l-11-3.5c-9.5-3-19.3-6-28.9-9.1c-1.2-0.4-2.6-0.2-4.1-0.1
			c-2.7,0.3-5.8,0.7-8.2-2.6c-0.3-0.4-0.2-1.1,0.2-1.4c0.4-0.3,1.1-0.2,1.4,0.2c1.7,2.3,3.7,2.1,6.3,1.8c1.6-0.2,3.3-0.4,4.9,0.1
			c9.6,3.1,19.4,6.1,28.9,9.1l11.1,3.5c0.5,0.2,0.8,0.7,0.7,1.3C1482,211.7,1481.6,211.9,1481.2,211.9z"/>
	</g>
	<g>
		<path fill="#FFFFFF" d="M450.1,344.4C450.1,344.4,450.1,344.4,450.1,344.4c-3.7,0-6.8-0.5-9.8-1.5c-9.3-3.1-18.8-5.9-28-8.7
			c-3.5-1-6.9-2.1-10.4-3.1c-0.5-0.2-0.8-0.7-0.7-1.2c0.2-0.5,0.7-0.8,1.2-0.7c3.5,1.1,6.9,2.1,10.4,3.1c9.2,2.8,18.7,5.7,28,8.7
			c2.8,0.9,5.7,1.4,9.1,1.4c0.6,0,1,0.5,1,1C451.1,344,450.6,344.4,450.1,344.4z"/>
	</g>
	<g>
		<path fill="#FFFFFF" d="M925.3,385.4c-2.5,0-5-0.1-7.5-0.1c-2.4-0.1-5-0.1-7.5-0.1c-0.6,0-1-0.4-1-1s0.4-1,1-1
			c2.5,0,5,0.1,7.5,0.1c5.5,0.1,11.2,0.2,16.7-0.3c3.6-0.3,7.3-0.4,10.8-0.4c6.2-0.1,12.7-0.2,18.8-1.8c0.5-0.1,1.1,0.2,1.2,0.7
			c0.1,0.5-0.2,1.1-0.7,1.2c-6.4,1.6-13,1.7-19.3,1.8c-3.5,0-7.1,0.1-10.7,0.4C931.6,385.3,928.4,385.4,925.3,385.4z"/>
	</g>
	<g>
		<path fill="#FFFFFF" d="M1518.8,294.3c-0.4,0-0.8-0.3-1-0.7c-0.2-0.5,0.1-1.1,0.6-1.3c9.8-3.2,18.2-11.6,21.5-21.4
			c2.2-6.5,3.1-16.7-4.8-28c-0.3-0.5-0.2-1.1,0.2-1.4s1.1-0.2,1.4,0.2c8.4,12,7.4,22.8,5,29.8c-3.5,10.4-12.4,19.3-22.8,22.7
			C1519,294.2,1518.9,294.3,1518.8,294.3z"/>
	</g>
	<g>
		<path fill="#FFFFFF" d="M673.6,395.4c-0.5,0-0.9-0.3-1-0.8c-1.9-9.7-8.2-14.1-20.2-14.2c-5,0-9.4-2.3-13.8-4.8
			c-1.2-0.7-2.4-1.4-3.6-2.1c-8.3-5-16.1-9.6-26-2.7c-1.4,1-3.3,1-5.2,1c-0.8,0-1.5,0-2.2,0.1c-0.5,0.1-1-0.3-1.1-0.9s0.3-1,0.9-1.1
			c0.8-0.1,1.6-0.1,2.5-0.1c1.5,0,3.1,0,4-0.6c11-7.7,19.7-2.5,28.2,2.6c1.2,0.7,2.4,1.4,3.6,2.1c4.2,2.4,8.3,4.5,12.8,4.5
			c8.2,0.1,19.3,1.8,22.1,15.8c0.1,0.5-0.2,1.1-0.8,1.2C673.7,395.4,673.6,395.4,673.6,395.4z"/>
	</g>
	<g>
		<path fill="#FFFFFF" d="M1280.5,168.8c0,0-0.1,0-0.1,0c-3.8-0.4-7.6-0.8-11.5-1.2c-9.9-1-20.1-2.1-30.1-3.8c-1.2-0.2-2.6,0-4,0.3
			c-2.7,0.5-5.8,1.2-8.4-1.9c-0.4-0.4-0.3-1.1,0.1-1.4c0.4-0.4,1.1-0.3,1.4,0.1c1.7,2.1,3.6,1.8,6.5,1.2c1.6-0.3,3.2-0.6,4.8-0.3
			c9.9,1.8,20.1,2.8,29.9,3.8c3.8,0.4,7.7,0.8,11.5,1.2c0.5,0.1,0.9,0.6,0.9,1.1C1281.4,168.4,1281,168.8,1280.5,168.8z"/>
	</g>
	<g>
		<path fill="#FFFFFF" d="M1327.5,511.5c-0.3,0-0.6-0.1-0.8-0.4c-0.3-0.4-0.2-1.1,0.2-1.4c12.7-9.7,18.4-22.6,16.9-38.3
			c-0.1-0.5,0.3-1,0.9-1.1c0.6-0.1,1,0.3,1.1,0.9c1.6,16.5-4.3,30-17.6,40.1C1327.9,511.4,1327.7,511.5,1327.5,511.5z"/>
	</g>
	<g>
		<path fill="#FFFFFF" d="M1478.1,357.8c-0.2,0-0.4-0.1-0.6-0.2c-0.5-0.3-0.6-0.9-0.2-1.4c3.9-5.5,5.8-10.5,6.3-16
			c0.7-8,2.5-15.7,5.3-23c0.2-0.5,0.8-0.8,1.3-0.6c0.5,0.2,0.8,0.8,0.6,1.3c-2.8,7.1-4.5,14.7-5.2,22.5c-0.5,5.9-2.6,11.1-6.7,16.9
			C1478.7,357.6,1478.4,357.8,1478.1,357.8z"/>
	</g>
	<g>
		<path fill="#FFFFFF" d="M1242.8,357c-0.5,0-1-0.4-1-1c0-0.6,0.4-1,1-1c2.3-0.1,4.7-0.1,7.1-0.1c5.2,0,10.5,0,15.5-0.9
			c3.9-0.8,7.8-0.4,11.6-0.1c5.4,0.4,10.6,0.8,15.7-1.6c4.8-2.3,9.5-0.5,12,2.3c0.4,0.4,0.3,1-0.1,1.4c-0.4,0.4-1,0.3-1.4-0.1
			c-1.5-1.7-5.3-4-9.7-1.9c-5.6,2.7-11.3,2.2-16.8,1.8c-3.8-0.3-7.5-0.6-11.1,0.1c-5.2,1-10.6,1-15.9,1
			C1247.6,356.9,1245.2,356.9,1242.8,357C1242.9,357,1242.8,357,1242.8,357z"/>
	</g>
	<g>
		<path fill="#FFFFFF" d="M566.1,531.1c-0.3,0-0.5-0.1-0.7-0.3c-11.1-12.3-22.9-24.2-35.2-35.2c-0.4-0.4-0.4-1-0.1-1.4
			c0.4-0.4,1-0.4,1.4-0.1c12.3,11.1,24.2,23,35.4,35.4c0.4,0.4,0.3,1-0.1,1.4C566.6,531,566.4,531.1,566.1,531.1z"/>
	</g>
	<g>
		<path fill="#FFFFFF" d="M446.2,201c-0.5,0-1-0.4-1-1c-0.1-1.8,0-3.6,0-5.4c0-3.9,0.1-7.9-0.7-11.7c-1.2-6.3,0.1-12.3,1.4-18.2
			c1-4.4,2-8.9,1.9-13.4c0-1.3,1.3-2.1,2.7-3c0.5-0.3,1-0.6,1.4-0.9c0.4-0.3,1.1-0.3,1.4,0.2c0.3,0.4,0.3,1.1-0.2,1.4
			c-0.5,0.4-1,0.7-1.6,1.1c-0.6,0.4-1.6,1-1.8,1.3c0.1,4.7-0.9,9.3-1.9,13.8c-1.3,5.9-2.6,11.5-1.4,17.4c0.8,4.1,0.8,8.2,0.7,12.1
			c0,1.7,0,3.5,0,5.3C447.2,200.5,446.7,200.9,446.2,201C446.2,201,446.2,201,446.2,201z M449.7,151.4L449.7,151.4L449.7,151.4z"/>
	</g>
	<g>
		<path fill="#FFFFFF" d="M980.9,873.7c-0.1,0-0.3,0-0.4-0.1c-0.5-0.2-0.7-0.8-0.5-1.3l0.5-1c2.5-5.3,4.8-10.3,6-16
			c1.9-8.7,4.3-15.3,7.7-20.8c0.3-0.5,0.9-0.6,1.4-0.3c0.5,0.3,0.6,0.9,0.3,1.4c-3.3,5.3-5.6,11.7-7.5,20.1
			c-1.3,6-3.8,11.3-6.2,16.4l-0.4,1C981.7,873.5,981.3,873.7,980.9,873.7z"/>
	</g>
	<g>
		<path fill="#FFFFFF" d="M1177,444c-0.1,0-0.2,0-0.4-0.1c-0.5-0.2-0.8-0.8-0.6-1.3c3.6-9.3,4.5-18.2,2.8-26
			c-3.1-13.9-0.7-26.5,7.5-38.5c0.3-0.5,0.9-0.6,1.4-0.3c0.5,0.3,0.6,0.9,0.3,1.4c-7.8,11.5-10.2,23.6-7.2,36.9
			c1.8,8.2,0.8,17.5-2.9,27.2C1177.7,443.8,1177.4,444,1177,444z"/>
	</g>
	<g>
		<path fill="#FFFFFF" d="M620.2,365.6C620.2,365.6,620.2,365.6,620.2,365.6c-0.6,0-1-0.5-1-1c0-1.1,0-2.2,0-3.2
			c0-4.7-0.1-9.6,1.6-14.3c1.3-3.7,0.9-7.5-1.4-12.6c-1.8-4-2.4-8.2-1.8-13.1c0.4-3,0.3-6.1,0.2-9.1c0-1.4-0.1-2.7-0.1-4.1
			c0-0.6,0.4-1,1-1s1,0.4,1,1c0,1.3,0,2.7,0.1,4c0.1,3.1,0.2,6.3-0.2,9.4c-0.5,4.4,0,8.4,1.7,12c1.7,3.7,3.4,8.7,1.5,14.1
			c-1.6,4.4-1.5,8.9-1.5,13.7c0,1.1,0,2.2,0,3.3C621.2,365.2,620.8,365.6,620.2,365.6z"/>
	</g>
	<g>
		<path fill="#FFFFFF" d="M1071.9,216.6c-0.3,0-0.6-0.1-0.8-0.4c-0.3-0.4-0.2-1.1,0.2-1.4c6.6-4.9,14.3-6.7,21.8-8.5l1.3-0.3
			c1.2-0.3,2.4-0.5,3.6-0.8c5.6-1.2,11.3-2.4,15.3-6.2c1.9-1.8,4-3.4,6.1-4.9c2.1-1.5,4.2-3.1,6-4.9l0.3-0.3c1.2-1.2,3.3-3.3,7-1.9
			c4.2,1.6,8.6,1.4,13.2,1.2c3.8-0.2,7.8-0.4,11.7,0.6c0.5,0.1,0.9,0.7,0.7,1.2c-0.1,0.5-0.7,0.9-1.2,0.7c-3.6-0.9-7.4-0.7-11.1-0.5
			c-4.6,0.2-9.4,0.4-14-1.3c-2.5-0.9-3.7,0.3-4.9,1.4l-0.3,0.3c-2,1.9-4.1,3.5-6.2,5.1c-2,1.5-4.1,3-5.9,4.7
			c-4.4,4.2-10.4,5.5-16.3,6.7c-1.2,0.3-2.4,0.5-3.6,0.8l-1.3,0.3c-7.6,1.8-14.9,3.5-21.1,8.2
			C1072.3,216.6,1072.1,216.6,1071.9,216.6z"/>
	</g>
	<g>
		<path fill="#FFFFFF" d="M326.2,292.7c-0.6,0-1-0.4-1-1c0-0.5,0-1.1,0.1-1.6c0.1-1,0.2-2-0.1-2.7c-3.6-10-1.8-19.5,5.7-30
			c0.3-0.4,0.9-0.6,1.4-0.2c0.4,0.3,0.6,0.9,0.2,1.4c-7,9.9-8.8,18.8-5.4,28.1c0.4,1.2,0.3,2.4,0.2,3.6c0,0.5-0.1,1-0.1,1.4
			C327.2,292.2,326.7,292.7,326.2,292.7z"/>
	</g>
	<g>
		<path fill="#FFFFFF" d="M945.6,919.2c-0.3,0-0.6-0.1-0.8-0.4c-0.4-0.4-0.3-1.1,0.1-1.4c15.2-13,29.9-18.2,46.2-16.4
			c3.3,0.4,6.8,0.4,10.1,0.4c1.6,0,3.1,0,4.7,0.1c0.6,0,1,0.5,1,1c0,0.6-0.5,1-1,1c-1.6,0-3.1,0-4.7-0.1c-3.4,0-6.9,0-10.3-0.4
			c-15.8-1.7-30,3.3-44.7,15.9C946.1,919.1,945.9,919.2,945.6,919.2z"/>
	</g>
	<g>
		<path fill="#FFFFFF" d="M1131.5,500.5c-0.5,0-0.9-0.4-1-0.9c-1.7-12.4,1.8-23.4,10.4-33c0.4-0.4,1-0.4,1.4-0.1
			c0.4,0.4,0.4,1,0.1,1.4c-8.3,9.1-11.6,19.6-9.9,31.3c0.1,0.5-0.3,1.1-0.8,1.1C1131.6,500.5,1131.5,500.5,1131.5,500.5z"/>
	</g>
	<g>
		<path fill="#FFFFFF" d="M1343.2,182.1c-0.2,0-0.5-0.1-0.7-0.2c-1.6-1.4-3.5-1.1-5.7-0.8c-2.3,0.3-4.9,0.7-7.2-1.2
			c-5.7,2-11.5,1.5-17.1,1c-5.1-0.5-9.9-0.9-14.6,0.4c-0.5,0.1-1.1-0.2-1.2-0.7c-0.1-0.5,0.2-1.1,0.7-1.2c5.1-1.4,10.3-0.9,15.3-0.4
			c5.8,0.5,11.3,1,16.7-1.1c0.4-0.1,0.8-0.1,1.1,0.2c1.6,1.7,3.7,1.4,6,1c2.4-0.3,5-0.7,7.3,1.3c0.4,0.4,0.5,1,0.1,1.4
			C1343.8,182,1343.5,182.1,1343.2,182.1z"/>
	</g>
	<g>
		<path fill="#FFFFFF" d="M1035.8,704.4c-0.5,0-1-0.4-1-1c-0.1-3-0.5-6.1-0.8-9.1c-0.9-6.9-1.7-14,0.9-21.1c0.2-0.5,0.8-0.8,1.3-0.6
			c0.5,0.2,0.8,0.8,0.6,1.3c-2.5,6.6-1.6,13.2-0.8,20.1c0.4,3,0.8,6.2,0.8,9.3C1036.8,703.9,1036.4,704.3,1035.8,704.4
			C1035.8,704.4,1035.8,704.4,1035.8,704.4z"/>
	</g>
	<g>
		<path fill="#FFFFFF" d="M1501.6,309.2c-0.5,0-0.9-0.3-1-0.8c-0.1-0.5,0.2-1.1,0.8-1.2c1.5-0.3,2.9-0.6,4.4-0.9
			c3.2-0.7,6.5-1.4,9.7-2.2c5.7-1.5,9-5.9,8.7-11.5c0-0.6,0.4-1,0.9-1.1c0.5,0,1,0.4,1.1,0.9c0.4,6.5-3.6,11.8-10.2,13.5
			c-3.3,0.8-6.6,1.5-9.8,2.2c-1.4,0.3-2.9,0.6-4.3,0.9C1501.7,309.2,1501.7,309.2,1501.6,309.2z"/>
	</g>
	<g>
		<path fill="#FFFFFF" d="M392.8,226c-0.4,0-0.9-0.3-1-0.8c-0.1-0.5,0.2-1.1,0.7-1.2c3.3-0.8,6.5-2.2,9.6-3.6
			c4.6-2,9.4-4.1,14.9-4.6c7.6-0.7,13.5-5.3,19.3-9.7c2.8-2.2,5.7-4.4,8.8-6.2c0.2-0.1,0.5-0.2,0.8-0.1c7.9,2.3,16.5,3.9,25,1
			c0.5-0.2,1.1,0.1,1.3,0.6c0.2,0.5-0.1,1.1-0.6,1.3c-8.9,3.1-17.7,1.4-25.8-0.8c-2.8,1.6-5.4,3.7-8.2,5.8
			c-6,4.6-12.1,9.4-20.3,10.1c-5.1,0.5-9.8,2.5-14.3,4.4c-3.2,1.4-6.4,2.8-9.9,3.7C393,226,392.9,226,392.8,226z"/>
	</g>
	<g>
		<path fill="#FFFFFF" d="M940.9,889.4c-0.5,0-1-0.4-1-1c-0.2-9.9,3.1-18.8,7.1-28.6c0.2-0.5,0.8-0.8,1.3-0.5
			c0.5,0.2,0.8,0.8,0.5,1.3c-3.9,9.6-7.1,18.3-7,27.8C942,888.9,941.5,889.4,940.9,889.4C941,889.4,940.9,889.4,940.9,889.4z"/>
	</g>
	<g>
		<path fill="#FFFFFF" d="M1407.5,426.8c-0.2,0-0.4-0.1-0.6-0.2c-0.4-0.3-0.5-0.9-0.2-1.4c5.8-7.9,7.3-17.1,8.8-26.9
			c0.1-0.6,0.2-1.2,0.3-1.9c-2.8-0.7-4.5,0.9-6.5,2.8c-0.9,0.8-1.8,1.7-2.9,2.3c-0.5,0.3-1.1,0.1-1.4-0.3s-0.1-1.1,0.3-1.4
			c0.9-0.5,1.7-1.3,2.6-2.1c2.3-2.1,4.9-4.5,9.3-2.9c0.5,0.2,0.7,0.6,0.6,1.1c-0.2,0.9-0.3,1.8-0.4,2.7c-1.6,9.5-3.2,19.4-9.2,27.7
			C1408.1,426.6,1407.8,426.8,1407.5,426.8z"/>
	</g>
	<g>
		<path fill="#FFFFFF" d="M1123.6,712.2c-0.1,0-0.1,0-0.2,0c-0.5-0.1-0.9-0.6-0.8-1.2c1.9-10,6.8-19,11.1-27
			c0.3-0.5,0.9-0.7,1.4-0.4c0.5,0.3,0.7,0.9,0.4,1.4c-4.5,8.2-9.1,16.7-10.9,26.4C1124.5,711.9,1124.1,712.2,1123.6,712.2z"/>
	</g>
	<g>
		<path fill="#FFFFFF" d="M945.6,899.6c-0.4,0-0.7-0.2-0.9-0.6c-0.2-0.5,0-1.1,0.5-1.3l2.5-1.2c8-3.9,16.2-7.9,23.2-13.6
			c0.4-0.3,1.1-0.3,1.4,0.1c0.3,0.4,0.3,1.1-0.1,1.4c-7.2,5.8-15.5,9.9-23.6,13.8l-2.5,1.2C945.9,899.6,945.8,899.6,945.6,899.6z"/>
	</g>
	<g>
		<path fill="#FFFFFF" d="M1078.9,749.8c-0.3,0-0.5,0-0.8,0c-0.6,0-1-0.5-1-1c0-0.5,0.5-1,1-1c0,0,0,0,0,0c4.7,0.1,9.5-0.8,14.2-1.7
			c3-0.6,6.1-1.2,9.2-1.5c0.6,0,1,0.3,1.1,0.9c0.1,0.5-0.3,1-0.9,1.1c-3,0.3-6.1,0.9-9.1,1.4C1088.3,749,1083.6,749.8,1078.9,749.8z
			"/>
	</g>
	<g>
		<path fill="#FFFFFF" d="M520.7,485.6c-0.3,0-0.6-0.1-0.8-0.4c-5.2-6.2-10.2-11.3-15.5-15.5c-0.4-0.3-0.5-1-0.2-1.4
			c0.3-0.4,1-0.5,1.4-0.2c5.4,4.3,10.6,9.5,15.8,15.8c0.4,0.4,0.3,1.1-0.1,1.4C521.1,485.5,520.9,485.6,520.7,485.6z"/>
	</g>
	<g>
		<path fill="#FFFFFF" d="M1130.7,188c-0.5,0-1-0.4-1-0.9c-0.1-1.7-0.1-3.4,0-5c0.1-3,0.2-5.7-0.7-8.5c-1.7-5.3-3.2-11.4-0.8-17.9
			c2.5-6.7,3-13.9,3.5-20.8c0.1-1.9,0.3-3.7,0.4-5.6c0-0.5,0.5-1,1.1-0.9c0.5,0,1,0.5,0.9,1.1c-0.2,1.8-0.3,3.7-0.4,5.5
			c-0.5,7.1-1,14.4-3.6,21.4c-2,5.3-1.1,10.5,0.8,16.6c1,3.1,0.9,6.2,0.8,9.2c0,1.6-0.1,3.2,0,4.8
			C1131.7,187.5,1131.3,188,1130.7,188C1130.7,188,1130.7,188,1130.7,188z"/>
	</g>
	<g>
		<path fill="#FFFFFF" d="M1024.8,745.1c-0.3,0-0.7-0.2-0.8-0.5c-0.3-0.5-0.2-1.1,0.3-1.4c5.3-3.3,8.5-8.5,10.5-16.6
			c0.1-0.5,0.7-0.9,1.2-0.7c0.5,0.1,0.9,0.7,0.7,1.2c-1.5,5.9-4.1,13.2-11.4,17.9C1025.2,745.1,1025,745.1,1024.8,745.1z"/>
	</g>
	<g>
		<path fill="#FFFFFF" d="M1056,666.7c-2,0-2.3-1.7-2.4-2.4c-0.6-4-1-6.4-2.1-7.2c-1.1-0.8-3.6-0.4-7.7,0.2
			c-0.5,0.1-1.1-0.3-1.1-0.8c-0.1-0.5,0.3-1.1,0.8-1.1c4.8-0.8,7.4-1.1,9.2,0.1c1.7,1.3,2.2,3.8,2.9,8.6c0.1,0.6,0.2,0.7,0.2,0.7
			l0,0c0,0,0.1,0,0.3,0c0.6,0,1,0.4,1.1,0.9c0,0.6-0.4,1-0.9,1.1C1056.2,666.7,1056.1,666.7,1056,666.7z"/>
	</g>
	<g>
		<path fill="#FFFFFF" d="M1097.8,566.4c-0.3,0-0.7-0.1-1.1-0.2c-2.1-0.8-4.1-0.5-6.2-0.2c-1.5,0.2-3,0.5-4.5,0.3
			c-0.6,0-1-0.5-0.9-1.1c0-0.5,0.5-0.9,1.1-0.9c1.3,0.1,2.6-0.1,4-0.3c2.3-0.4,4.7-0.7,7.3,0.3c0.1,0.1,0.2,0.1,0.3,0.1
			c0.1-0.2,0.1-0.6,0.2-0.8c0.1-0.7,0.2-1.5,0.8-2.1c0.4-0.4,1-0.4,1.4,0c0.4,0.4,0.4,1,0,1.4c-0.1,0.1-0.2,0.7-0.2,1
			c-0.1,0.8-0.3,1.8-1.1,2.3C1098.4,566.3,1098.1,566.4,1097.8,566.4z"/>
	</g>
	<g>
		<path fill="#FFFFFF" d="M1045.2,818.8c-0.3,0-0.7-0.2-0.9-0.5c-1-1.7-0.9-3.5-0.9-5.3c0.1-1.8,0.1-3.4-1-4.8
			c-2.8-2.5-6-1.7-9.7-0.8c-0.5,0.1-1,0.3-1.5,0.4c-0.5,0.1-1.1-0.2-1.2-0.8c-0.1-0.5,0.2-1.1,0.8-1.2c0.5-0.1,1-0.2,1.5-0.4
			c3.7-0.9,8-2,11.6,1.4c0,0,0.1,0.1,0.1,0.1c1.6,2,1.5,4.2,1.4,6.1c0,1.5-0.1,3,0.6,4.2c0.3,0.5,0.1,1.1-0.4,1.4
			C1045.6,818.8,1045.4,818.8,1045.2,818.8z"/>
	</g>
	<g>
		<path fill="#FFFFFF" d="M1002.9,297.4c-0.1,0-0.2,0-0.3,0c-6-1.6-4.9-5.5-4.1-8.4c0.4-1.5,0.8-2.9,0.3-3.9c-0.2-0.5,0-1.1,0.5-1.3
			c0.5-0.2,1.1,0,1.3,0.5c0.7,1.7,0.2,3.5-0.3,5.2c-0.8,2.9-1.3,4.9,2.7,6c0.5,0.1,0.8,0.7,0.7,1.2
			C1003.7,297.1,1003.3,297.4,1002.9,297.4z"/>
	</g>
	<g>
		<path fill="#FFFFFF" d="M1498.5,323.3c-0.4,0-0.8-0.3-0.9-0.7l-2.5-7.2c-1.3,0.3-2.6,0.9-3.8,1.5c-2.1,1-4.3,2-6.9,1.7
			c-0.5-0.1-0.9-0.6-0.9-1.1c0.1-0.5,0.5-0.9,1.1-0.9c2.1,0.2,3.9-0.6,5.9-1.5c1.6-0.7,3.3-1.5,5.2-1.8c0.5-0.1,0.9,0.2,1.1,0.7
			l2.8,8c0.2,0.5-0.1,1.1-0.6,1.3C1498.7,323.3,1498.6,323.3,1498.5,323.3z"/>
	</g>
	<g>
		<path fill="#FFFFFF" d="M407,232.3c-0.3,0-0.6-0.2-0.8-0.5c-0.3-0.5-0.2-1.1,0.3-1.4c4.4-2.9,3.8-7.1,2.7-11.5
			c-0.1-0.5,0.2-1.1,0.7-1.2c0.5-0.1,1.1,0.2,1.2,0.7c1.2,4.7,2,10-3.6,13.6C407.3,232.3,407.1,232.3,407,232.3z"/>
	</g>
	<g>
		<path fill="#FFFFFF" d="M1015.4,762.4c-0.5,0-1-0.4-1-1c-0.1-1.5,0.2-2.9,0.4-4.3c0.4-2.6,0.8-5.1-0.6-7.5c-2-0.6-4.2-0.6-6.6-0.5
			c-1,0-2.1,0-3.2,0c-0.6,0-1-0.5-1-1c0-0.5,0.5-1,1-1c0,0,0,0,0,0c1,0,2.1,0,3.1,0c2.6-0.1,5.3-0.1,7.7,0.7
			c0.2,0.1,0.4,0.2,0.5,0.4c1.9,3.2,1.5,6.2,1,9.2c-0.2,1.4-0.4,2.7-0.4,4C1016.5,761.9,1016,762.4,1015.4,762.4
			C1015.5,762.4,1015.4,762.4,1015.4,762.4z"/>
	</g>
	<g>
		<path fill="#FFFFFF" d="M667.3,397c-0.3,0-0.6-0.1-0.8-0.3c-2.7-3.1-6-8-3.3-14.4c0.2-0.5,0.8-0.7,1.3-0.5
			c0.5,0.2,0.7,0.8,0.5,1.3c-1.7,4.1-0.8,7.9,3,12.3c0.4,0.4,0.3,1-0.1,1.4C667.7,396.9,667.5,397,667.3,397z"/>
	</g>
	<g>
		<path fill="#FFFFFF" d="M1147.2,478.5c-0.3,0-0.7-0.2-0.9-0.5c-1-1.8-1-3.8-0.9-5.6c0.1-1.9,0.1-3.5-0.9-4.8
			c-3.3-0.6-6.2,0.2-9.4,1c-0.6,0.2-1.2,0.3-1.8,0.4c-0.5,0.1-1.1-0.2-1.2-0.7c-0.1-0.5,0.2-1.1,0.7-1.2c0.6-0.1,1.2-0.3,1.7-0.4
			c3.3-0.9,6.8-1.7,10.6-1c0.2,0,0.4,0.1,0.5,0.3c1.9,1.9,1.8,4.4,1.7,6.5c-0.1,1.6-0.1,3.2,0.6,4.5c0.3,0.5,0.1,1.1-0.4,1.4
			C1147.5,478.5,1147.3,478.5,1147.2,478.5z"/>
	</g>
	<g>
		<path fill="#FFFFFF" d="M1354.2,478.5c-0.4,0-0.8-0.3-1-0.7c-0.5-2.1-1.9-3.7-3.4-5.5c-0.6-0.7-1.3-1.5-1.9-2.3
			c-2.1,0.3-3.9,1.6-5.8,2.9c-0.8,0.5-1.6,1.1-2.4,1.6c-0.5,0.3-1.1,0.1-1.4-0.3c-0.3-0.5-0.1-1.1,0.3-1.4c0.8-0.5,1.5-1,2.3-1.5
			c2.2-1.5,4.5-3.1,7.3-3.3c0.4,0,0.7,0.1,0.9,0.4c0.6,0.9,1.4,1.8,2.1,2.7c1.5,1.8,3.1,3.7,3.8,6.2c0.1,0.5-0.2,1.1-0.7,1.2
			C1354.3,478.5,1354.3,478.5,1354.2,478.5z"/>
	</g>
	<g>
		<path fill="#FFFFFF" d="M1084.4,221.3c-0.3,0-0.7-0.2-0.9-0.5c-0.3-0.5-0.1-1.1,0.4-1.4c4-2.3,6.1-5.6,6.6-10.2
			c0.1-0.5,0.5-1,1.1-0.9c0.5,0.1,1,0.5,0.9,1.1c-0.5,5.2-3,9.2-7.6,11.8C1084.8,221.3,1084.6,221.3,1084.4,221.3z"/>
	</g>
	<g>
		<path fill="#FFFFFF" d="M1135.5,149.2c-0.5,0-1,0-1.4,0c-0.6,0-1.2,0-1.8,0c0,0,0,0,0,0c-0.5,0-1-0.4-1-1c0-0.6,0.4-1,1-1
			c0.6,0,1.3,0,1.9,0c3.9,0.1,6.4,0,7.3-4c0.1-0.5,0.7-0.9,1.2-0.7c0.5,0.1,0.9,0.7,0.7,1.2C1142.2,148.7,1138.7,149.2,1135.5,149.2
			z"/>
	</g>
	<g>
		<path fill="#FFFFFF" d="M1120.5,731c-0.1,0-0.2,0-0.2,0c-0.5-0.1-0.9-0.7-0.7-1.2l1.6-6.3c-1.4-0.9-2.3-0.3-3.8,1
			c-1.2,1-2.8,2.4-4.9,1.7c-0.5-0.2-0.8-0.7-0.7-1.2c0.2-0.5,0.7-0.8,1.2-0.7c1,0.3,1.8-0.3,3-1.4c1.6-1.4,3.8-3.2,6.9-0.7
			c0.3,0.2,0.4,0.6,0.3,1l-1.7,6.9C1121.4,730.7,1121,731,1120.5,731z"/>
	</g>
	<g>
		<path fill="#FFFFFF" d="M1194.2,387.6C1194.2,387.6,1194.2,387.6,1194.2,387.6c-0.6,0-1-0.5-1-1c0.1-3.3-1.8-5.6-4-8.3l-0.2-0.2
			l-10.3,3.3c-0.5,0.2-1.1-0.1-1.3-0.6c-0.2-0.5,0.1-1.1,0.6-1.3l10.9-3.5c0.4-0.1,0.8,0,1.1,0.3l0.6,0.7c2.4,2.9,4.6,5.6,4.4,9.7
			C1195.2,387.2,1194.7,387.6,1194.2,387.6z"/>
	</g>
	<g>
		<path fill="#FFFFFF" d="M412.8,386.9c-0.4,0-0.9,0-1.3-0.1c-0.5-0.1-0.9-0.7-0.8-1.2c0.1-0.5,0.7-0.9,1.2-0.8
			c1.2,0.3,2.5-0.1,3.9-0.5c2.3-0.7,4.9-1.4,7.5,0.7c0.4,0.4,0.5,1,0.1,1.4c-0.4,0.4-1,0.5-1.4,0.1c-1.8-1.5-3.6-0.9-5.6-0.3
			C415.2,386.6,414,386.9,412.8,386.9z"/>
	</g>
	<g>
		<path fill="#FFFFFF" d="M614.8,323.3c-0.3,0-0.6-0.1-0.8-0.4c-2.8-3.4-2-7-1.3-10.2c0.1-0.5,0.2-1,0.3-1.6
			c0.1-0.5,0.6-0.9,1.2-0.8c0.5,0.1,0.9,0.6,0.8,1.2c-0.1,0.5-0.2,1.1-0.3,1.6c-0.7,3.2-1.3,5.9,0.9,8.5c0.4,0.4,0.3,1.1-0.1,1.4
			C615.2,323.2,615,323.3,614.8,323.3z"/>
	</g>
	<g>
		<path fill="#FFFFFF" d="M624.2,323.3c-0.2,0-0.4-0.1-0.6-0.2c-0.5-0.3-0.6-0.9-0.3-1.4c1.2-1.8,1-3.8,0.7-5.9
			c-0.2-1.5-0.4-3.1,0-4.8c0.1-0.5,0.7-0.9,1.2-0.8c0.5,0.1,0.9,0.7,0.8,1.2c-0.3,1.3-0.1,2.6,0.1,4.1c0.3,2.3,0.6,4.8-1,7.2
			C624.8,323.1,624.5,323.3,624.2,323.3z"/>
	</g>
	<g>
		<path fill="#FFFFFF" d="M657.9,392.3C657.8,392.3,657.8,392.3,657.9,392.3c-0.6,0-1-0.5-1-1.1l0.8-9.4c0-0.6,0.5-1,1.1-0.9
			c0.6,0,1,0.5,0.9,1.1l-0.8,9.4C658.8,391.9,658.4,392.3,657.9,392.3z"/>
	</g>
	<g>
		<path fill="#FFFFFF" d="M446.5,350.3c-0.2,0-0.3,0-0.5,0c-1.4-0.1-2.6-0.9-3.7-2.3c-0.3-0.4-0.3-1.1,0.2-1.4
			c0.4-0.3,1.1-0.3,1.4,0.2c0.8,0.9,1.5,1.5,2.4,1.5c1.1,0.1,2.4-0.5,4-1.8c0.7-0.6,0.6-0.9-0.2-2.4c-0.5-0.9-1.1-1.9-1-3.1
			c-0.1-0.1-0.6-0.2-0.9-0.3c-1-0.2-2.8-0.6-2.9-2.7c0-0.6,0.4-1,1-1c0.6,0,1,0.4,1,1c0,0.5,0.1,0.6,1.3,0.8
			c0.9,0.2,2.6,0.5,2.5,2.4c0,0.6,0.3,1.3,0.7,2c0.7,1.3,1.8,3.2-0.3,4.9C450.2,349,448.5,350.3,446.5,350.3z"/>
	</g>
	<g>
		<path fill="#FFFFFF" d="M1275.8,566.3c-0.3,0-0.6-0.2-0.8-0.4c-0.7-1-1.2-2.3-1.7-3.5c-0.9-2.1-1.7-4.1-3.3-4.7
			c-1.1-0.4-2.7-0.2-4.7,0.7c-0.5,0.2-1.1,0-1.3-0.5c-0.2-0.5,0-1.1,0.5-1.3c2.5-1.2,4.6-1.4,6.2-0.7c2.4,0.9,3.4,3.4,4.4,5.8
			c0.5,1.2,1,2.3,1.6,3.1c0.3,0.5,0.2,1.1-0.3,1.4C1276.1,566.3,1276,566.3,1275.8,566.3z"/>
	</g>
	<g>
		<path fill="#FFFFFF" d="M1202.1,641.6c-0.3,0-0.7-0.2-0.9-0.5c-2.7-4.8-4.5-7.7-6.8-8.1c-1.8-0.3-4.1,0.8-7.4,3.6
			c-0.4,0.4-1.1,0.3-1.4-0.1c-0.4-0.4-0.3-1,0.1-1.4c3.8-3.3,6.6-4.5,9-4.1c3.4,0.6,5.5,4.3,8.2,9.1c0.3,0.5,0.1,1.1-0.4,1.4
			C1202.4,641.6,1202.2,641.6,1202.1,641.6z"/>
	</g>
	<g>
		<path fill="#FFFFFF" d="M450.1,148.4c-0.4,0-0.7-0.2-0.9-0.6c-1-2.2-1-4.3-0.9-6.5c0-0.9,0.1-1.7,0-2.5c0-0.6,0.4-1,0.9-1.1
			c0.5,0,1,0.4,1.1,0.9c0.1,0.9,0,1.8,0,2.7c-0.1,2-0.1,3.8,0.7,5.5c0.2,0.5,0,1.1-0.5,1.3C450.4,148.4,450.2,148.4,450.1,148.4z"/>
	</g>
	<g>
		<path fill="#FFFFFF" d="M454.8,157c-0.3,0-0.6-0.1-0.8-0.4c-0.3-0.4-0.3-1.1,0.1-1.4c1.4-1.2,1.7-2.8,2-4.7
			c0.2-1.2,0.4-2.4,0.9-3.6c0.2-0.5,0.8-0.7,1.3-0.5c0.5,0.2,0.7,0.8,0.5,1.3c-0.4,0.9-0.6,2-0.7,3.1c-0.3,2-0.6,4.3-2.7,5.9
			C455.2,157,455,157,454.8,157z"/>
	</g>
	<g>
		<path fill="#FFFFFF" d="M329.2,294.5c-0.2,0-0.5-0.1-0.6-0.2c-0.6-0.5-1.5-0.7-2.5-0.9c-1.8-0.4-3.9-0.9-4.8-3.7
			c-0.2-0.5,0.1-1.1,0.7-1.2c0.5-0.2,1.1,0.1,1.2,0.7c0.5,1.6,1.5,1.9,3.3,2.3c0.7,0.2,1.5,0.4,2.3,0.7c0.3-0.6,0.5-1.2,0.7-1.9
			c0.6-1.8,1.2-3.6,3.2-4.8c0.5-0.3,1.1-0.1,1.4,0.3c0.3,0.5,0.1,1.1-0.3,1.4c-1.3,0.8-1.8,2.2-2.3,3.8c-0.4,1.1-0.7,2.2-1.4,3.2
			c-0.2,0.2-0.4,0.4-0.7,0.4C329.3,294.5,329.3,294.5,329.2,294.5z"/>
	</g>
	<g>
		<path fill="#FFFFFF" d="M724.5,685.5c-0.2,0-0.4-0.1-0.6-0.2c-0.5-0.3-0.6-0.9-0.3-1.4c0.9-1.3,0.7-2.7,0.6-4.3
			c-0.1-1-0.2-2.1,0-3.2c0.1-0.5,0.6-0.9,1.1-0.8c0.5,0.1,0.9,0.6,0.8,1.1c-0.1,0.8-0.1,1.7,0,2.7c0.1,1.7,0.3,3.7-1,5.6
			C725.2,685.4,724.8,685.5,724.5,685.5z"/>
	</g>
	<g>
		<path fill="#FFFFFF" d="M1128.3,732.6c-0.2,0-0.5-0.1-0.7-0.3c-1.1-1-1.6-2.2-2.1-3.4c-0.8-1.8-1.3-3-3-3.4
			c-0.5-0.1-0.8-0.7-0.7-1.2c0.1-0.5,0.7-0.8,1.2-0.7c2.6,0.7,3.5,2.8,4.3,4.6c0.5,1.1,0.9,2.1,1.6,2.7c0.4,0.4,0.5,1,0.1,1.4
			C1128.9,732.5,1128.6,732.6,1128.3,732.6z"/>
	</g>
	<g>
		<path fill="#FFFFFF" d="M911.9,157C911.9,157,911.9,157,911.9,157c-2.3-0.1-3.9-1.5-5.3-2.8c-1.9-1.7-3.2-2.7-5.4-2
			c-0.5,0.2-1.1-0.1-1.3-0.6c-0.2-0.5,0.1-1.1,0.6-1.3c3.4-1.2,5.6,0.8,7.4,2.4c1.3,1.1,2.4,2.2,3.9,2.2c0.6,0,1,0.5,1,1
			C912.9,156.6,912.5,157,911.9,157z"/>
	</g>
	<g>
		<path fill="#FFFFFF" d="M516.6,487.8c-1.1,0-2.1-0.5-3-1c-1.2-0.6-1.9-1-2.7-0.6c-0.5,0.3-1.1,0.1-1.4-0.4
			c-0.3-0.5-0.1-1.1,0.4-1.4c1.8-1,3.4-0.1,4.6,0.6c1.4,0.8,2.1,1.1,3.1,0.3c0.4-0.3,1.1-0.3,1.4,0.2c0.3,0.4,0.3,1.1-0.2,1.4
			C518.1,487.6,517.4,487.8,516.6,487.8z"/>
	</g>
	<g>
		<path fill="#FFFFFF" d="M1101.7,575.8c-0.2,0-0.4-0.1-0.6-0.2c-2.1-1.4-2.1-3.5-2-5.1c0-1.2,0-2.2-0.6-2.9
			c-0.4-0.4-0.3-1.1,0.1-1.4c0.4-0.4,1.1-0.3,1.4,0.1c1.1,1.3,1,2.9,1,4.2c0,1.7,0,2.7,1.1,3.4c0.5,0.3,0.6,0.9,0.3,1.4
			C1102.3,575.6,1102,575.8,1101.7,575.8z"/>
	</g>
	<g>
		<path fill="#FFFFFF" d="M1431,193.9c-0.2,0-0.3,0-0.5-0.1c-0.5-0.3-0.7-0.9-0.4-1.4c1-1.8,2.8-1.5,4-1.3c1.6,0.2,1.9,0.2,2.2-0.8
			c0.1-0.5,0.7-0.8,1.2-0.7c0.5,0.1,0.8,0.7,0.7,1.2c-0.8,2.8-3,2.5-4.4,2.3c-1.3-0.2-1.7-0.2-2,0.3
			C1431.7,193.7,1431.4,193.9,1431,193.9z"/>
	</g>
	<g>
		<path fill="#FFFFFF" d="M402.3,230.7c0,0-0.1,0-0.1,0c-0.5-0.1-0.9-0.6-0.9-1.1l0.8-7.1c0.1-0.5,0.6-0.9,1.1-0.9
			c0.5,0.1,0.9,0.6,0.9,1.1l-0.8,7.1C403.2,230.4,402.8,230.7,402.3,230.7z"/>
	</g>
	<g>
		<path fill="#FFFFFF" d="M1035.8,814.1c-0.4,0-0.8-0.2-0.9-0.6c-0.2-0.5,0-1.1,0.5-1.3c0.8-0.4,1.6-1,2.4-1.6
			c1.3-1.1,2.9-2.4,5.1-2.4c0,0,0,0,0,0c0.5,0,1,0.4,1,1c0,0.6-0.4,1-1,1c-1.5,0-2.6,0.9-3.8,1.9c-0.9,0.7-1.7,1.5-2.9,1.9
			C1036.1,814.1,1036,814.1,1035.8,814.1z"/>
	</g>
	<g>
		<path fill="#FFFFFF" d="M1007.6,754.5c-0.4,0-0.8-0.3-0.9-0.7c-0.2-0.5,0.1-1.1,0.6-1.3l7.1-2.4c0.5-0.2,1.1,0.1,1.3,0.6
			c0.2,0.5-0.1,1.1-0.6,1.3l-7.1,2.4C1007.8,754.5,1007.7,754.5,1007.6,754.5z"/>
	</g>
	<g>
		<path fill="#FFFFFF" d="M1421.6,404.8c-0.4,0-0.8-0.3-1-0.7l-0.2-0.6c-0.7-2.2-1.3-4-3.2-5.1c-0.5-0.3-0.7-0.9-0.4-1.4
			c0.3-0.5,0.9-0.7,1.4-0.4c2.7,1.4,3.5,4,4.2,6.2l0.2,0.6c0.2,0.5-0.1,1.1-0.6,1.3C1421.8,404.8,1421.7,404.8,1421.6,404.8z"/>
	</g>
	<g>
		<path fill="#FFFFFF" d="M757,162c-2.3,0-4-2.1-4.8-3l-0.1-0.1c-1.3-1.7-3-4.1-2.1-6.1c0.6-1.4,2.2-2.2,4.9-2.4
			c0.5,0,1,0.4,1.1,0.9c0,0.6-0.4,1-0.9,1.1c-1.8,0.1-3,0.6-3.3,1.2c-0.2,0.4-0.2,1.5,1.8,4.1l0.1,0.1c1.1,1.4,2.4,2.8,4.1,2.1
			c0.5-0.2,1.1,0.1,1.3,0.6c0.2,0.5-0.1,1.1-0.6,1.3C758,161.9,757.5,162,757,162z"/>
	</g>
	<g>
		<path fill="#FFFFFF" d="M391.3,232.3c-0.4,0-0.7-0.2-0.9-0.5c-0.3-0.5-0.1-1.1,0.4-1.3c0.5-0.3,1-0.5,1.5-0.7c2-1,3.9-1.9,5.2-3.7
			c0.3-0.4,1-0.5,1.4-0.2c0.4,0.3,0.5,1,0.2,1.4c-1.6,2.2-3.8,3.2-6,4.3c-0.5,0.2-1,0.5-1.4,0.7
			C391.6,232.3,391.4,232.3,391.3,232.3z"/>
	</g>
	<g>
		<path fill="#FFFFFF" d="M1299.3,185.3c-0.1,0-0.3,0-0.4-0.1c-1.5-0.7-2.5-2-3.6-3.2c-1.9-2.3-3.2-4-6.5-2.3
			c-0.5,0.3-1.1,0.1-1.3-0.4c-0.3-0.5-0.1-1.1,0.4-1.3c4.8-2.4,7.1,0.5,9,2.8c0.9,1.1,1.8,2.2,2.8,2.7c0.5,0.2,0.7,0.8,0.5,1.3
			C1300,185.1,1299.7,185.3,1299.3,185.3z"/>
	</g>
	<g>
		<path fill="#FFFFFF" d="M824.9,784.3c-0.1,0-0.2,0-0.3,0c-0.5-0.2-0.8-0.7-0.7-1.2c0.1-0.4,0.3-0.8,0.4-1.2c0.7-2,1-3-0.7-4
			c-0.5-0.3-0.6-0.9-0.4-1.4c0.3-0.5,0.9-0.6,1.4-0.4c3.2,1.9,2.3,4.6,1.6,6.4c-0.1,0.4-0.3,0.7-0.4,1.1
			C825.7,784.1,825.3,784.3,824.9,784.3z"/>
	</g>
	<g>
		<path fill="#FFFFFF" d="M453.2,147.6c-0.2,0-0.5-0.1-0.7-0.2c-0.4-0.4-0.5-1-0.1-1.4c0.7-0.8,0.7-1.8,0.5-3.2
			c-0.1-0.9-0.2-1.7,0-2.6c0.1-0.5,0.6-0.9,1.2-0.8c0.5,0.1,0.9,0.6,0.8,1.2c-0.1,0.6-0.1,1.3,0,2c0.1,1.4,0.3,3.1-1,4.7
			C453.8,147.5,453.5,147.6,453.2,147.6z"/>
	</g>
	<g>
		<path fill="#FFFFFF" d="M446.9,150.8c-0.3,0-0.6-0.2-0.8-0.4l-0.2-0.3c-1.2-1.8-2.7-3.9-2.3-6.6c0.1-0.5,0.6-0.9,1.1-0.9
			c0.5,0.1,0.9,0.6,0.9,1.1c-0.3,2,0.8,3.5,1.9,5.2l0.2,0.3c0.3,0.5,0.2,1.1-0.3,1.4C447.3,150.7,447.1,150.8,446.9,150.8z"/>
	</g>
	<g>
		<path fill="#FFFFFF" d="M1443.6,332.7c-0.4,0-0.8-0.2-0.9-0.6c-0.2-0.5,0-1.1,0.5-1.3c2.7-1.2,3.6-2.4,3.3-4.4
			c-0.1-0.5,0.3-1.1,0.9-1.1c0.6-0.1,1.1,0.3,1.1,0.9c0.5,3.9-2.1,5.5-4.5,6.5C1443.8,332.7,1443.7,332.7,1443.6,332.7z"/>
	</g>
	<g>
		<path fill="#FFFFFF" d="M1120.5,377.4c-0.2,0-0.4-0.1-0.6-0.2l-7.8-5.5c-0.5-0.3-0.6-0.9-0.2-1.4c0.3-0.5,0.9-0.6,1.4-0.2l7.8,5.5
			c0.5,0.3,0.6,0.9,0.2,1.4C1121.1,377.2,1120.8,377.4,1120.5,377.4z"/>
	</g>
	<g>
		<path fill="#FFFFFF" d="M1302.4,353.1C1302.4,353.1,1302.4,353.1,1302.4,353.1c-0.6,0-1-0.5-1-1c0.1-1.6-0.8-2-2.4-2.8
			c-0.7-0.3-1.3-0.6-1.9-1.1c-0.4-0.3-0.5-1-0.2-1.4c0.3-0.4,1-0.5,1.4-0.2c0.4,0.3,1,0.6,1.6,0.9c1.5,0.7,3.6,1.7,3.5,4.7
			C1303.4,352.6,1303,353.1,1302.4,353.1z"/>
	</g>
	<g>
		<path fill="#FFFFFF" d="M803.7,390.7c-0.3,0-0.6-0.1-0.8-0.4c-0.3-0.4-0.2-1.1,0.2-1.4c2.5-1.8,4.1-3.1,4.2-3.8
			c0.1-0.7-1.1-2.1-2.8-4.1c-0.4-0.4-0.3-1.1,0.1-1.4c0.4-0.4,1.1-0.3,1.4,0.1c2.3,2.7,3.5,4.1,3.3,5.7c-0.2,1.6-1.7,2.8-5,5.2
			C804.1,390.6,803.9,390.7,803.7,390.7z"/>
	</g>
	<g>
		<path fill="#FFFFFF" d="M520.7,481.7c-0.2,0-0.5-0.1-0.7-0.2c-0.4-0.4-0.5-1-0.1-1.4c0.7-0.8,0.7-1.8,0.5-3.2
			c-0.1-0.9-0.2-1.7,0-2.6c0.1-0.5,0.6-0.9,1.2-0.8c0.5,0.1,0.9,0.6,0.8,1.2c-0.1,0.6-0.1,1.3,0,2c0.1,1.4,0.3,3.1-1,4.7
			C521.2,481.5,520.9,481.7,520.7,481.7z"/>
	</g>
	<g>
		<path fill="#FFFFFF" d="M624.2,585.2c-0.2,0-0.5-0.1-0.7-0.2c-0.4-0.4-0.5-1-0.1-1.4c0.7-0.8,0.7-1.8,0.5-3.2
			c-0.1-0.9-0.2-1.7,0-2.6c0.1-0.5,0.6-0.9,1.2-0.8c0.5,0.1,0.9,0.6,0.8,1.2c-0.1,0.6-0.1,1.3,0,2c0.1,1.4,0.3,3.1-1,4.7
			C624.7,585.1,624.4,585.2,624.2,585.2z"/>
	</g>
	<g>
		<path fill="#FFFFFF" d="M718,688.8c-0.5,0-1,0-1.4-0.1c-0.7-0.1-1.4-0.1-2,0c-0.5,0.1-1.1-0.2-1.2-0.8c-0.1-0.5,0.2-1.1,0.8-1.2
			c0.9-0.2,1.8-0.1,2.6,0c1.4,0.1,2.3,0.2,3.2-0.5c0.4-0.4,1-0.3,1.4,0.1c0.4,0.4,0.3,1-0.1,1.4C720.2,688.5,719.1,688.8,718,688.8z
			"/>
	</g>
	<g>
		<path fill="#FFFFFF" d="M1129.1,136.7c-0.3,0-0.6-0.1-0.8-0.3c-1.3-1.5-1.2-3.3-1-4.7c0.1-0.7,0.1-1.4,0-2
			c-0.1-0.5,0.2-1.1,0.8-1.2c0.5-0.1,1.1,0.2,1.2,0.8c0.2,0.9,0.1,1.8,0,2.6c-0.1,1.4-0.2,2.3,0.5,3.2c0.4,0.4,0.3,1-0.1,1.4
			C1129.6,136.6,1129.4,136.7,1129.1,136.7z"/>
	</g>
	<g>
		<path fill="#FFFFFF" d="M1135.4,136.7c-0.1,0-0.2,0-0.3-0.1c-0.5-0.2-0.8-0.8-0.6-1.3c0.3-0.8,0.7-1.6,1.2-2.3
			c0.7-1.2,1.4-2.2,1.1-3.5c-0.1-0.5,0.2-1.1,0.8-1.2c0.5-0.1,1.1,0.2,1.2,0.8c0.4,2.1-0.6,3.6-1.4,4.9c-0.4,0.6-0.8,1.2-1,1.9
			C1136.2,136.4,1135.8,136.7,1135.4,136.7z"/>
	</g>
	<g>
		<path fill="#FFFFFF" d="M1081.3,216.6c-0.4,0-0.8-0.3-1-0.7c-0.2-0.5,0.1-1.1,0.7-1.3c1.8-0.6,2.5-1.7,2.4-3.7c0-0.6,0.4-1,1-1
			c0.5,0,1,0.4,1,1c0.1,2.9-1.2,4.9-3.8,5.7C1081.5,216.6,1081.4,216.6,1081.3,216.6z"/>
	</g>
	<g>
		<path fill="#FFFFFF" d="M676.7,387.6c0,0-0.1,0-0.1,0l-5.5-0.8c-0.5-0.1-0.9-0.6-0.8-1.1c0.1-0.5,0.6-0.9,1.1-0.8l5.5,0.8
			c0.5,0.1,0.9,0.6,0.8,1.1C677.6,387.2,677.2,387.6,676.7,387.6z"/>
	</g>
	<g>
		<path fill="#FFFFFF" d="M1545.5,251.1c-0.5,0-0.9-0.3-1-0.8c-0.2-1.1-0.5-1.1-1.7-0.8c-0.7,0.1-1.6,0.3-2.4,0
			c-0.5-0.2-0.7-0.8-0.5-1.3c0.2-0.5,0.8-0.7,1.3-0.5c0.3,0.1,0.8,0,1.3-0.1c1.2-0.2,3.4-0.7,4,2.4c0.1,0.5-0.2,1.1-0.8,1.2
			C1545.6,251.1,1545.6,251.1,1545.5,251.1z"/>
	</g>
	<g>
		<path fill="#FFFFFF" d="M963.7,387.6c-0.3,0-0.6-0.2-0.8-0.4c-0.3-0.5-0.2-1.1,0.3-1.4c1.8-1.2,2.1-1.9,2.1-2.3
			c0-0.7-1-1.5-1.9-2.2c-0.7-0.6-1.5-1.2-2-1.9c-0.3-0.4-0.2-1.1,0.2-1.4c0.4-0.3,1.1-0.2,1.4,0.2c0.4,0.5,1,1,1.6,1.5
			c1.3,1,2.7,2.2,2.6,3.9c-0.1,1.3-1,2.5-3,3.9C964.1,387.5,963.9,387.6,963.7,387.6z"/>
	</g>
	<g>
		<path fill="#FFFFFF" d="M601.3,172.9c-0.5,0-1.1-0.1-1.7-0.3c-0.5-0.2-0.8-0.7-0.7-1.2c0.2-0.5,0.7-0.8,1.2-0.7
			c2,0.6,2.9-0.4,4.3-2.1c0.8-1,1.6-2,2.8-2.6c0.5-0.2,1.1,0,1.3,0.5s0,1.1-0.5,1.3c-0.8,0.4-1.4,1.2-2.1,2
			C604.9,171.3,603.6,172.9,601.3,172.9z"/>
	</g>
</g>
</svg>
