<?xml version="1.0" standalone="no"?>
<!DOCTYPE svg PUBLIC "-//W3C//DTD SVG 1.1//EN" "http://www.w3.org/Graphics/SVG/1.1/DTD/svg11.dtd" >
<svg xmlns="http://www.w3.org/2000/svg" xmlns:xlink="http://www.w3.org/1999/xlink" version="1.1">
<metadata>
Created by FontForge 20200314 at Fri Mar 27 19:28:40 2020
 By Unknown
Copyright (c) 2020, Blaine O'Neill
</metadata>
<defs>
<font id="ArialBlur" horiz-adv-x="837" >
  <font-face 
    font-family="ArialBlur"
    font-weight="900"
    font-stretch="normal"
    units-per-em="1000"
    panose-1="2 0 10 3 0 0 0 0 0 0"
    ascent="800"
    descent="-200"
    cap-height="736"
    bbox="14 -65 1024 784"
    underline-thickness="50"
    underline-position="-100"
    unicode-range="U+0008-005A"
  />
<missing-glyph horiz-adv-x="364" 
d="M33 0v666h265v-666h-265zM66 33h199v600h-199v-600z" />
    <glyph glyph-name=".notdef" horiz-adv-x="364" 
d="M33 0v666h265v-666h-265zM66 33h199v600h-199v-600z" />
    <glyph glyph-name=".null" horiz-adv-x="0" 
 />
    <glyph glyph-name=".null" horiz-adv-x="0" 
 />
    <glyph glyph-name=".null" horiz-adv-x="0" 
 />
    <glyph glyph-name="nonmarkingreturn" unicode="&#x9;" horiz-adv-x="333" 
 />
    <glyph glyph-name="nonmarkingreturn" unicode="&#xd;" horiz-adv-x="333" 
 />
    <glyph glyph-name="quotesingle" unicode="'" horiz-adv-x="250" 
d="M101 784h34q40 0 68.5 -28.5t28.5 -68.5v-67q0 -90 -38 -143q-30 -42 -93 -75q-9 -5 -18 -5q-24 0 -34 21l-11 20q-5 8 -5 18q0 22 19 33q31 18 45 36h1q15 19 4.5 40.5t-34.5 21.5q-20 0 -34.5 14t-14.5 34v68q0 33 24 57t58 24z" />
    <glyph glyph-name="slash" unicode="/" horiz-adv-x="358" 
d="M254 752h1q14 0 25.5 -7t18 -18.5t6.5 -25.5q0 -6 -1 -11l-161 -664q-4 -17 -18 -28t-31 -11q-21 0 -36 15t-15 36q0 6 2 12l160 663q3 11 10 20t17 14t22 5z" />
    <glyph glyph-name="A" unicode="A" horiz-adv-x="858" 
d="M524 122h-185q-17 0 -30 -10t-18 -26l-15 -50q-4 -16 -17.5 -26t-30.5 -10h-123q-21 0 -35.5 14.5t-14.5 35.5q0 9 3 18l240 639q6 14 18.5 23t28.5 9h180q16 0 28.5 -9t18.5 -23l240 -639q3 -9 3 -18q0 -21 -14.5 -35.5t-35.5 -14.5h-130q-17 0 -30 10t-18 26l-15 50
q-5 16 -18 26t-30 10zM494 347l-14 44q-7 23 -27.5 31.5t-41 0t-26.5 -31.5l-14 -44q-2 -8 -2 -15q0 -21 14.5 -35.5t35.5 -14.5h27q21 0 35.5 14.5t14.5 35.5q0 7 -2 15z" />
    <glyph glyph-name="B" unicode="B" horiz-adv-x="790" 
d="M70 686q0 20 14.5 35t35.5 15h378q107 0 164 -53t57 -131q0 -66 -41 -113q-3 -3 -5 -6q-17 -17 -14.5 -40.5t21.5 -36.5q20 -13 36 -32q37 -47 37 -117q0 -58 -26 -104q-27 -46 -74 -72q-28 -17 -86 -25q-77 -10 -103 -10h-344q-21 0 -35.5 15t-14.5 35v640zM300 496
q0 -21 15 -35.5t35 -14.5h50q53 0 74 18.5t21 52.5q0 33 -21 51t-73 18h-51q-20 0 -35 -14.5t-15 -35.5v-40zM300 205q0 -20 15 -35t35 -15h67q59 0 83 21t24 56q0 33 -24 53t-84 20h-66q-20 0 -35 -14.5t-15 -35.5v-50z" />
    <glyph glyph-name="C" unicode="C" horiz-adv-x="781" 
d="M606 284l104 -31q15 -5 25 -18t10 -30q0 -9 -3 -17q-19 -52 -48 -90q-44 -57 -108 -85.5t-164 -28.5q-120 0 -196.5 35t-132 123t-55.5 226q0 183 97.5 281.5t276.5 98.5q139 0 219 -56q59 -42 96 -116q10 -21 -0.5 -43t-33.5 -27l-103 -23q-5 -1 -11 -1q-30 0 -44 27
q-4 7 -9 14q-18 26 -47 40q-27 14 -62 14q-77 0 -119 -62q-31 -46 -31 -146q0 -123 37.5 -168.5t104.5 -45.5q66 0 99 37q22 24 36 62q6 14 18.5 23t28.5 9q7 0 15 -2z" />
    <glyph glyph-name="D" unicode="D" horiz-adv-x="796" 
d="M62 686q0 20 14.5 35t35.5 15h290q100 0 161.5 -27.5t102 -78.5t58.5 -118.5t18 -142.5q0 -119 -27 -184.5t-74.5 -109.5t-102.5 -58q-75 -21 -136 -21h-290q-21 0 -35.5 15t-14.5 35v640zM291 518v-304q0 -20 14.5 -35t35.5 -15h6q71 0 101.5 16t47.5 55.5t17 128.5
q0 118 -38.5 161t-126.5 43h-7q-21 0 -35.5 -14.5t-14.5 -35.5z" />
    <glyph glyph-name="E" unicode="E" horiz-adv-x="731" 
d="M113 736h512q21 0 35.5 -15t14.5 -35v-58q0 -21 -14.5 -35.5t-35.5 -14.5h-283q-21 0 -35.5 -14.5t-14.5 -35.5v-18q0 -20 14.5 -35t35.5 -15h255q21 0 35.5 -14.5t14.5 -35.5v-50q0 -21 -14.5 -35.5t-35.5 -14.5h-255q-21 0 -35.5 -15t-14.5 -35v-46q0 -21 14.5 -35.5
t35.5 -14.5h294q21 0 35.5 -14.5t14.5 -35.5v-68q0 -20 -14.5 -35t-35.5 -15h-523q-21 0 -35.5 15t-14.5 35v640q0 20 14.5 35t35.5 15z" />
    <glyph glyph-name="F" unicode="F" horiz-adv-x="661" 
d="M105 736h465q20 0 35 -15t15 -35v-59q0 -21 -15 -35.5t-35 -14.5h-236q-20 0 -35 -14.5t-15 -35.5v-29q0 -21 15 -35.5t35 -14.5h187q20 0 35 -14.5t15 -35.5v-49q0 -21 -15 -35.5t-35 -14.5h-187q-20 0 -35 -15t-15 -35v-203q0 -20 -14.5 -35t-35.5 -15h-129
q-21 0 -35.5 15t-14.5 35v640q0 20 14.5 35t35.5 15z" />
    <glyph glyph-name="G" unicode="G" horiz-adv-x="860" 
d="M449 308v66q0 18 13 31t31 13h265q18 0 31 -13t13 -31v-248q0 -23 -20 -37q-89 -58 -159 -80q-78 -25 -185 -25q-132 0 -215 45t-128.5 133.5t-45.5 203.5q0 121 50 210.5t146 136.5q75 35 203 35q122 0 183 -22t101 -69q24 -28 41 -66q4 -8 4 -18q0 -16 -10.5 -28
t-25.5 -15l-136 -24q-4 -1 -7 -1q-26 0 -38.5 22t-34.5 37q-32 22 -83 22q-75 0 -119.5 -52t-44.5 -165q0 -120 45 -171.5t126 -51.5h1q37 0 72 11q26 8 57 24q23 13 23 39q0 18 -13 31t-31 13h-65q-18 0 -31 13t-13 31z" />
    <glyph glyph-name="H" unicode="H" horiz-adv-x="843" 
d="M113 736h128q21 0 35.5 -15t14.5 -35v-159q0 -21 14.5 -35.5t35.5 -14.5h150q20 0 35 14.5t15 35.5v159q0 20 14.5 35t35.5 15h129q21 0 35.5 -15t14.5 -35v-640q0 -20 -14.5 -35t-35.5 -15h-129q-21 0 -35.5 15t-14.5 35v199q0 21 -15 35.5t-35 14.5h-150
q-21 0 -35.5 -14.5t-14.5 -35.5v-199q0 -20 -14.5 -35t-35.5 -15h-128q-21 0 -35.5 15t-14.5 35v640q0 20 14.5 35t35.5 15z" />
    <glyph glyph-name="I" unicode="I" horiz-adv-x="362" 
d="M115 736h129q20 0 35 -15t15 -35v-640q0 -20 -15 -35t-35 -15h-129q-21 0 -35.5 15t-14.5 35v640q0 20 14.5 35t35.5 15z" />
    <glyph glyph-name="J" unicode="J" horiz-adv-x="665" 
d="M442 736h129q20 0 35 -15t15 -35v-352q0 -127 -22.5 -193t-90.5 -111.5t-174 -45.5q-112 0 -173.5 30t-94.5 89q-23 39 -33 91q-1 5 -1 10q0 19 12.5 33t30.5 16l116 16h7q13 0 23.5 -5.5t17.5 -15t8.5 -21.5t5.5 -23q8 -24 27 -39q13 -9 37 -9q39 0 57 28.5t18 95.5v406
q0 20 14.5 35t35.5 15z" />
    <glyph glyph-name="K" unicode="K" 
d="M116 736h129q20 0 35 -15t15 -35v-94q0 -23 15.5 -37.5t36.5 -13.5t36 18l136 159q15 18 38 18h163q33 0 46 -30.5t-10 -54.5l-161 -167q-14 -14 -14 -34q0 -14 7 -26l215 -352q16 -25 1.5 -50.5t-43.5 -25.5h-162q-30 0 -44 28l-110 214q-14 27 -45 27q-21 0 -36 -15
l-55 -59q-14 -14 -14 -34v-111q0 -20 -15 -35t-35 -15h-129q-20 0 -35 15t-15 35v640q0 20 15 35t35 15z" />
    <glyph glyph-name="L" unicode="L" horiz-adv-x="688" 
d="M104 736h129q20 0 35 -15t15 -35v-458q0 -20 14.5 -35t35.5 -15h256q21 0 35.5 -14.5t14.5 -35.5v-82q0 -20 -14.5 -35t-35.5 -15h-485q-21 0 -35.5 15t-14.5 35v640q0 20 14.5 35t35.5 15z" />
    <glyph glyph-name="M" unicode="M" horiz-adv-x="935" 
d="M106 736h212q17 0 30.5 -10.5t17.5 -27.5l58 -223q6 -24 27 -33.5t42.5 0t27.5 33.5l57 223q3 11 10 19.5t17 13.5t21 5h212q21 0 35.5 -15t14.5 -35v-640q0 -20 -14.5 -35t-35.5 -15h-87q-21 0 -35.5 15t-14.5 35v117q0 21 -13.5 34.5t-30.5 15.5t-33 -7.5t-22 -30.5
l-36 -141q-4 -16 -17.5 -27t-30.5 -11h-92q-17 0 -30.5 11t-17.5 27l-36 140q-5 21 -21.5 30.5t-33.5 7.5t-30.5 -15.5t-13.5 -34.5v-116q0 -20 -14.5 -35t-35.5 -15h-87q-20 0 -35 15t-15 35v640q0 20 15 35t35 15z" />
    <glyph glyph-name="N" unicode="N" horiz-adv-x="848" 
d="M117 735h137q27 0 42 -22l172 -253q13 -19 35 -21.5t39 12t17 38.5v196q0 21 14.5 35.5t35.5 14.5h115q21 0 35.5 -14.5t14.5 -35.5v-639q0 -21 -14.5 -35.5t-35.5 -14.5h-139q-26 0 -41 22l-170 250q-14 20 -36 22t-39 -12t-17 -38v-194q0 -21 -14.5 -35.5t-35.5 -14.5
h-115q-20 0 -35 14.5t-15 35.5v639q0 21 15 35.5t35 14.5z" />
    <glyph glyph-name="O" unicode="O" horiz-adv-x="841" 
d="M33 365q0 181 101 282t281 101q185 0 284.5 -99t99.5 -278q0 -129 -43.5 -212t-126 -129.5t-205.5 -46.5q-125 0 -207 40t-133 126t-51 216zM262 364q0 -112 41.5 -161t113.5 -49q73 0 113.5 48t40.5 172q0 105 -42 153t-114 48q-70 0 -111.5 -49t-41.5 -162z" />
    <glyph glyph-name="P" unicode="P" horiz-adv-x="730" 
d="M61 689q0 21 14.5 35.5t35.5 14.5h329q125 0 186.5 -59t61.5 -168q0 -112 -67.5 -175t-205.5 -63h-75q-20 0 -35 -14.5t-15 -35.5v-174q0 -21 -14.5 -35.5t-35.5 -14.5h-129q-21 0 -35.5 14.5t-14.5 35.5v639zM290 474q0 -20 15 -35t35 -15h6q66 0 93 23t27 59
q0 35 -23.5 59t-87.5 24h-15q-20 0 -35 -14.5t-15 -35.5v-65z" />
    <glyph glyph-name="Q" unicode="Q" horiz-adv-x="869" 
d="M764 146q-7 -11 -7 -25q0 -27 23 -42q8 -6 13 -8q4 -3 9 -5q27 -14 27 -45q0 -11 -6 -22l-18 -36q-14 -28 -44 -28q-14 0 -25 7q-24 14 -48 30q-27 18 -45 31q-13 10 -30 10q-8 0 -16 -2q-69 -24 -165 -24q-168 0 -265 88q-115 104 -115 292q0 183 100.5 284t280.5 101
q185 0 285 -99t100 -283q0 -134 -54 -224zM537 241q6 -4 14 -4q18 0 23 17q15 45 15 117q0 112 -41.5 160t-114.5 48q-68 0 -110.5 -49t-42.5 -153q0 -121 41.5 -170t113.5 -49q13 0 16 12t-7 19q-7 4 -14 7q-17 9 -23.5 28t1.5 36q12 28 43 28q10 0 20 -4q17 -8 66 -43z
" />
    <glyph glyph-name="R" unicode="R" horiz-adv-x="791" 
d="M53 50v639q0 21 14.5 35.5t35.5 14.5h330q106 0 162 -18t90.5 -67t34.5 -120q0 -62 -26.5 -106.5t-72.5 -72.5l-16 -8q-16 -8 -16 -25q0 -15 11 -23h1q12 -9 36 -39t32 -46l73 -141q13 -25 -1.5 -49t-42.5 -24h-146q-30 0 -44 26l-108 200q-24 44 -42 57q-24 17 -56 17
q-8 0 -14 -6t-6 -14v-230q0 -21 -14.5 -35.5t-35.5 -14.5h-129q-21 0 -35.5 14.5t-14.5 35.5zM282 490q0 -21 14.5 -35.5t35.5 -14.5h46q16 0 61 10q23 4 37 23q14 18 14 42v1q0 36 -22.5 55t-85.5 19h-50q-21 0 -35.5 -14.5t-14.5 -35.5v-50z" />
    <glyph glyph-name="S" unicode="S" horiz-adv-x="740" 
d="M81 248l118 7q2 1 4 1q16 0 29.5 -10t17.5 -26q8 -26 21 -43q35 -44 101 -44q49 0 75.5 23t26.5 53q0 29 -25 51.5t-117 42.5q-151 34 -215 90t-64 143q0 57 33 107.5t99 79.5t182 29q142 0 216 -53q53 -37 75 -105q8 -24 -6 -44t-39 -22l-116 -7h-3q-16 0 -28.5 9
t-18.5 22q-10 25 -27 40q-27 22 -76 22q-40 0 -60 -17t-20 -41q0 -17 17 -32q16 -14 76 -27q150 -32 215 -65t94.5 -82t29.5 -110q0 -71 -39.5 -131t-110 -91t-177.5 -31q-189 0 -262 73q-52 52 -72 125q-1 6 -1 13q0 20 13.5 34.5t33.5 15.5z" />
    <glyph glyph-name="T" unicode="T" horiz-adv-x="750" 
d="M77 739h595q13 0 24.5 -6.5t18.5 -18t7 -25.5v-82q0 -21 -15 -35.5t-35 -14.5h-133q-14 0 -25.5 -7t-18 -18.5t-6.5 -24.5v-457q0 -21 -15 -35.5t-35 -14.5h-129q-21 0 -35.5 14.5t-14.5 35.5v457q0 20 -14.5 35t-35.5 15h-133q-21 0 -35.5 14.5t-14.5 35.5v82
q0 21 14.5 35.5t35.5 14.5z" />
    <glyph glyph-name="U" unicode="U" horiz-adv-x="820" 
d="M588 739h128q14 0 25.5 -6.5t18 -18t6.5 -25.5v-390q0 -66 -20.5 -124t-64 -101.5t-91.5 -61.5q-67 -25 -160 -25q-54 0 -117.5 7.5t-106.5 30t-78.5 64t-48.5 85.5q-22 70 -22 125v390q0 14 7 25.5t18.5 18t24.5 6.5h128q21 0 35.5 -14.5t14.5 -35.5v-401
q0 -60 33.5 -94t93.5 -34q59 0 92.5 33.5t33.5 94.5v401q0 21 14.5 35.5t35.5 14.5z" />
    <glyph glyph-name="V" unicode="V" 
d="M83 739h130q11 0 21 -4.5t17 -12.5t10 -18l107 -343q7 -23 27.5 -31.5t41 0t27.5 31.5l106 343q4 15 17.5 25t29.5 10h123q14 0 25.5 -6.5t18 -18t6.5 -25.5q0 -9 -3 -17l-237 -639q-5 -15 -18 -24t-29 -9h-178q-16 0 -29 9t-18 23l-242 640q-3 8 -3 17q0 14 7 25.5
t18.5 18t24.5 6.5z" />
    <glyph glyph-name="W" unicode="W" horiz-adv-x="1031" 
d="M64 739h113q18 0 32 -11.5t17 -28.5l31 -162q3 -19 17 -29.5t29.5 -11.5t30.5 9t20 28l47 170q4 16 17.5 26t30.5 10h140q17 0 30.5 -10t17.5 -26l47 -170q7 -25 29 -33.5t43 2t26 35.5l30 162q4 17 17.5 28.5t31.5 11.5h113q13 0 24.5 -6.5t18.5 -18t7 -25.5
q0 -5 -2 -11l-141 -639q-3 -17 -17 -28t-31 -11h-146q-9 0 -16.5 2.5t-14 7.5t-11 12t-6.5 15l-72 255q-6 24 -27 33t-41.5 0t-27.5 -33l-71 -255q-4 -16 -17.5 -26.5t-30.5 -10.5h-146q-18 0 -31.5 11t-17.5 28l-142 639q-1 6 -1 11q0 21 14.5 35.5t35.5 14.5z" />
    <glyph glyph-name="X" unicode="X" horiz-adv-x="777" 
d="M107 739h130q29 0 43 -25l73 -126q14 -25 43.5 -25t43.5 26l70 125q14 25 43 25h129q29 0 43.5 -26t-1.5 -51l-163 -253q-8 -13 -8 -27q0 -15 8 -28l183 -277q16 -24 2 -50.5t-44 -26.5h-136q-28 0 -42 24l-89 144q-15 24 -43 24t-42 -24l-89 -144q-3 -6 -8 -10t-10 -7.5
t-11.5 -5t-13.5 -1.5h-134q-30 0 -44 26.5t2 50.5l186 281q8 12 8 27t-8 28l-163 249q-16 25 -2 51t44 26z" />
    <glyph glyph-name="Y" unicode="Y" horiz-adv-x="763" 
d="M71 739h131q29 0 43 -24l92 -153q14 -25 42.5 -25t43.5 25l91 153q15 24 43 24h131q30 0 44 -26.5t-3 -51.5l-227 -339q-8 -12 -8 -28v-244q0 -21 -15 -35.5t-35 -14.5h-129q-21 0 -35.5 14.5t-14.5 35.5v244q0 16 -9 28l-227 339q-17 25 -2.5 51.5t44.5 26.5z" />
    <glyph glyph-name="Z" unicode="Z" horiz-adv-x="796" 
d="M141 739h547q13 0 25 -6.5t18.5 -18t6.5 -25.5v-77q0 -20 -14 -35l-320 -334q-23 -23 -10 -53.5t46 -30.5h263q21 0 35.5 -15t14.5 -35v-59q0 -21 -14.5 -35.5t-35.5 -14.5h-601q-21 0 -35.5 14.5t-14.5 35.5v83q0 20 14 35l315 329q23 24 10 54t-46 30h-204
q-20 0 -35 15t-15 35v58q0 21 15 35.5t35 14.5z" />
  </font>
</defs>
</svg>
