<?xml version="1.0" standalone="no"?>
<!DOCTYPE svg PUBLIC "-//W3C//DTD SVG 20010904//EN"
 "http://www.w3.org/TR/2001/REC-SVG-20010904/DTD/svg10.dtd">
<svg version="1.0" xmlns="http://www.w3.org/2000/svg"
 width="1920.000000pt" height="1920.000000pt" viewBox="0 0 1920.000000 1920.000000"
 preserveAspectRatio="xMidYMid meet">
<metadata>
Created by potrace 1.11, written by Peter Selinger 2001-2013
</metadata>
<g transform="translate(0.000000,1920.000000) scale(0.100000,-0.100000)"
fill="#000000" stroke="none">
<path d="M9259 18965 c-2 -2 -35 -6 -74 -10 -38 -4 -79 -9 -90 -11 -29 -6
-112 -15 -170 -19 -27 -2 -50 -4 -50 -5 0 -1 -25 -5 -110 -15 -27 -3 -66 -8
-85 -10 -19 -3 -60 -7 -90 -10 -30 -2 -167 -27 -305 -55 -137 -28 -263 -53
-280 -56 -16 -3 -82 -16 -145 -29 -63 -14 -128 -26 -145 -29 -16 -2 -37 -6
-45 -9 -8 -3 -80 -24 -160 -46 -334 -91 -513 -142 -520 -146 -3 -2 -17 -6 -31
-9 -30 -6 -139 -35 -159 -42 -8 -3 -15 -4 -16 -2 0 2 -8 -3 -17 -11 -10 -7
-17 -11 -17 -7 0 4 -12 0 -27 -8 -26 -13 -310 -113 -343 -121 -8 -2 -37 -11
-64 -20 -26 -9 -56 -18 -65 -21 -9 -2 -43 -13 -76 -25 -33 -11 -64 -22 -70
-23 -22 -5 -271 -88 -290 -97 -18 -8 -307 -111 -365 -129 -14 -4 -50 -17 -80
-28 -104 -38 -375 -134 -385 -137 -10 -2 -115 -51 -339 -159 -72 -35 -196 -91
-276 -126 -139 -59 -222 -96 -284 -126 -16 -8 -33 -14 -38 -14 -5 0 -77 -46
-160 -102 -84 -57 -167 -112 -184 -123 -18 -11 -79 -51 -136 -90 -56 -38 -111
-73 -120 -77 -10 -4 -18 -12 -18 -18 0 -5 -5 -10 -11 -10 -6 0 -25 -11 -43
-25 -18 -14 -36 -25 -40 -25 -4 0 -16 -8 -27 -18 -10 -11 -32 -25 -47 -33 -15
-8 -29 -16 -32 -19 -3 -3 -23 -17 -45 -33 -61 -42 -797 -775 -835 -832 -19
-27 -36 -52 -40 -55 -5 -4 -54 -72 -117 -159 -10 -14 -35 -46 -56 -73 -20 -26
-37 -52 -37 -57 0 -5 -4 -11 -9 -13 -4 -1 -53 -64 -107 -138 -104 -142 -168
-228 -182 -245 -16 -20 -82 -136 -82 -146 0 -5 -4 -9 -10 -9 -5 0 -10 -4 -10
-10 0 -5 -34 -69 -77 -142 -42 -73 -89 -158 -106 -188 -16 -30 -33 -59 -37
-65 -9 -11 -43 -70 -72 -125 -11 -19 -32 -57 -49 -85 -49 -84 -91 -166 -130
-251 -20 -44 -43 -96 -52 -115 -9 -19 -28 -61 -43 -94 -87 -193 -91 -204 -92
-219 0 -5 -4 -12 -9 -15 -5 -3 -28 -51 -52 -106 -24 -55 -57 -129 -73 -165
-16 -36 -34 -76 -40 -90 -6 -14 -14 -32 -18 -40 -4 -9 -11 -31 -15 -50 -4 -19
-10 -39 -13 -45 -6 -10 -101 -281 -107 -305 -2 -8 -4 -17 -5 -20 -1 -3 -2 -8
-1 -12 0 -5 -4 -8 -11 -8 -6 0 -9 -2 -6 -5 4 -5 -69 -230 -115 -355 -19 -51
-37 -115 -52 -185 -9 -44 -19 -87 -22 -95 -4 -8 -7 -24 -9 -35 -2 -18 -18 -83
-105 -410 -16 -60 -31 -119 -33 -130 -3 -11 -13 -56 -24 -100 -11 -44 -23
-103 -26 -132 -3 -28 -15 -112 -26 -185 -10 -74 -22 -154 -25 -179 -4 -24 -8
-55 -10 -69 -6 -37 -13 -89 -20 -138 -4 -24 -8 -52 -10 -61 -2 -10 -6 -42 -10
-71 -4 -29 -9 -62 -11 -74 -2 -12 -6 -75 -9 -141 -2 -66 -7 -187 -10 -270 -19
-466 -23 -607 -17 -618 2 -5 6 -44 8 -87 2 -44 6 -117 9 -162 3 -46 8 -123 11
-173 3 -49 7 -112 8 -140 2 -27 7 -99 11 -160 4 -60 14 -150 22 -200 8 -49 17
-99 18 -110 7 -46 26 -162 31 -185 3 -14 7 -38 9 -55 2 -16 8 -55 14 -85 15
-83 23 -132 27 -160 1 -14 3 -25 4 -25 1 0 3 -13 5 -30 2 -16 7 -41 11 -55 3
-14 8 -41 10 -60 5 -36 62 -268 69 -280 2 -3 13 -39 23 -80 105 -396 176 -637
212 -725 5 -11 27 -69 50 -130 23 -60 46 -121 52 -135 5 -14 10 -27 11 -30 0
-3 18 -47 39 -99 21 -52 38 -98 38 -103 0 -5 9 -28 20 -50 11 -23 20 -47 20
-53 0 -6 8 -29 19 -51 10 -21 25 -57 32 -79 8 -22 49 -109 91 -192 42 -84 74
-153 71 -153 -3 0 0 -7 7 -15 7 -8 78 -147 159 -307 81 -161 169 -327 196
-368 26 -41 66 -102 87 -135 21 -33 42 -65 48 -72 5 -7 10 -16 10 -21 0 -4 8
-17 18 -28 10 -10 21 -26 25 -34 4 -8 18 -33 32 -55 14 -22 30 -50 37 -63 6
-12 15 -22 20 -22 4 0 8 -5 8 -10 0 -9 47 -87 60 -100 3 -3 10 -14 17 -25 6
-11 39 -63 72 -115 54 -85 78 -117 138 -185 10 -11 45 -54 78 -95 33 -41 65
-80 70 -86 6 -6 21 -25 35 -43 14 -18 34 -42 45 -55 11 -13 34 -40 50 -61 17
-21 35 -43 40 -49 10 -10 147 -177 205 -250 29 -37 20 -28 312 -298 19 -18 75
-69 123 -113 48 -44 104 -96 124 -115 20 -19 82 -75 136 -125 55 -49 102 -93
103 -97 2 -5 7 -8 12 -8 5 0 75 -46 157 -102 81 -57 182 -126 223 -155 41 -28
140 -96 220 -150 80 -54 147 -100 150 -103 7 -7 60 -42 86 -56 120 -65 185
-104 344 -209 460 -303 466 -307 905 -526 356 -178 554 -267 629 -284 6 -1 18
-5 26 -8 22 -9 342 -118 360 -122 26 -6 198 -71 345 -130 77 -31 176 -70 220
-86 112 -42 221 -84 318 -120 45 -17 91 -35 102 -39 11 -5 47 -18 80 -30 33
-13 69 -26 80 -31 11 -4 34 -10 50 -14 44 -10 47 -11 202 -54 78 -22 186 -52
240 -66 119 -32 107 -29 223 -61 108 -29 160 -41 228 -50 26 -3 58 -7 72 -9
14 -2 48 -7 75 -10 28 -4 57 -8 65 -10 8 -2 42 -7 75 -11 33 -3 62 -7 65 -9 3
-2 34 -6 70 -10 36 -3 72 -8 80 -10 8 -3 35 -7 60 -10 69 -8 113 -15 140 -21
30 -7 920 -6 1005 0 71 6 172 15 235 22 25 2 77 7 115 10 39 2 84 7 100 9 30
4 204 18 238 19 9 0 17 3 17 6 0 3 21 5 48 6 51 0 135 11 167 21 11 3 34 7 50
9 17 2 41 5 55 8 29 7 96 18 130 21 14 2 25 4 25 5 0 2 25 7 77 14 24 3 68 10
98 16 30 5 69 11 85 14 17 2 50 8 75 12 25 4 50 8 55 9 6 1 12 3 15 4 3 1 16
4 30 6 26 3 346 85 436 111 28 8 61 17 73 19 11 3 30 7 41 10 11 3 30 7 41 10
12 2 36 9 54 15 18 6 41 12 51 15 116 24 167 41 644 221 80 31 150 56 155 58
6 2 24 9 40 15 17 7 37 14 45 16 27 6 165 66 174 75 6 6 18 10 27 10 10 0 19
3 21 8 4 9 90 52 105 52 6 0 13 3 15 8 4 9 130 72 145 72 6 0 13 3 15 8 4 9
291 152 306 152 6 0 12 3 14 8 2 4 26 18 53 31 52 24 151 85 370 227 72 46
137 87 145 91 8 4 20 11 25 16 6 4 89 58 185 119 96 61 177 114 178 119 2 5 7
9 12 9 4 0 86 54 182 120 95 66 181 125 192 132 10 7 28 20 40 29 11 9 80 56
151 104 72 49 136 95 143 102 7 7 16 13 20 13 4 0 30 22 58 48 28 26 77 70
109 97 31 28 74 66 95 85 21 19 68 62 105 95 38 33 73 65 79 70 6 6 47 42 90
80 44 39 87 77 96 85 9 8 36 33 61 55 24 22 82 88 129 145 46 58 88 107 92
108 4 2 8 10 8 17 0 7 4 15 8 17 9 3 92 103 276 331 110 136 296 411 296 437
0 5 4 10 8 12 7 3 26 33 82 127 9 14 23 37 32 51 22 34 100 161 115 185 6 11
34 57 62 102 28 45 55 92 61 105 5 13 14 30 18 38 16 27 35 64 102 195 37 72
116 227 177 345 61 118 123 247 138 285 15 39 36 89 46 112 11 24 19 48 19 54
0 6 7 23 15 37 20 38 65 153 65 169 0 7 4 13 10 13 5 0 9 3 8 8 -2 6 42 124
78 207 43 101 71 177 78 216 3 13 5 24 6 24 2 0 3 5 20 75 7 25 13 52 15 60 2
8 11 39 19 68 8 29 15 55 15 57 1 3 3 10 6 17 3 11 19 72 41 158 2 8 22 83 44
165 43 162 43 161 60 280 6 44 13 91 15 105 3 14 7 41 9 60 3 19 8 52 11 73 3
20 7 54 10 75 3 20 8 48 10 62 3 14 7 48 10 75 4 28 8 57 10 65 2 8 7 42 11
75 3 33 8 63 10 67 2 4 7 58 9 120 3 62 7 154 10 203 22 439 23 656 0 1030 -2
44 -7 134 -10 201 -2 66 -10 154 -16 195 -6 41 -15 103 -20 139 -5 36 -12 83
-15 105 -8 52 -13 90 -19 140 -3 22 -7 54 -10 70 -2 17 -9 62 -15 100 -6 39
-13 93 -16 120 -3 28 -8 54 -12 59 -3 5 -9 28 -14 50 -11 53 -18 82 -31 136
-13 49 -78 315 -82 334 -28 127 -44 186 -92 331 -30 94 -60 176 -65 183 -6 6
-8 12 -5 12 4 0 -10 44 -29 98 -56 154 -91 263 -104 326 -6 32 -18 73 -26 92
-8 19 -14 36 -14 39 0 3 -2 10 -5 17 -3 12 -69 222 -137 438 -16 52 -36 113
-45 135 -8 22 -14 40 -12 40 3 0 -28 86 -46 130 -7 17 -29 71 -50 120 -20 50
-43 106 -51 125 -9 19 -20 46 -26 60 -6 14 -14 33 -19 42 -5 10 -9 22 -9 28 0
5 -11 33 -24 62 -13 29 -45 105 -70 168 -26 63 -51 122 -55 130 -4 8 -34 67
-67 130 -32 63 -62 117 -66 118 -4 2 -8 9 -8 16 0 7 -17 44 -37 82 -21 38 -60
112 -86 164 -101 198 -150 287 -201 365 -29 44 -59 91 -66 104 -7 14 -17 30
-22 35 -5 6 -44 67 -88 136 -43 69 -83 130 -87 136 -4 5 -13 19 -20 30 -54 89
-141 223 -156 239 -9 11 -69 85 -133 165 -63 80 -127 160 -142 179 -77 96
-128 156 -134 159 -5 2 -8 8 -8 13 0 5 -8 17 -17 27 -26 27 -56 64 -76 92 -22
32 -709 730 -718 730 -6 0 -280 203 -354 262 -5 5 -68 52 -140 105 -71 54
-132 100 -135 103 -5 5 -46 32 -127 83 -24 15 -43 24 -43 21 0 -4 -8 -1 -17 7
-10 8 -27 19 -38 25 -11 6 -42 23 -70 39 -27 15 -88 49 -135 75 -47 26 -103
57 -124 70 -22 12 -60 33 -85 47 -25 14 -73 40 -106 59 -75 43 -265 136 -587
288 -54 25 -142 67 -195 92 -87 41 -263 110 -303 119 -8 2 -62 20 -120 40
-447 155 -480 165 -832 251 -10 2 -26 6 -35 8 -10 3 -70 17 -133 32 -122 28
-265 62 -290 68 -8 3 -51 15 -95 29 -44 14 -120 37 -170 52 -49 14 -101 30
-115 35 -35 12 -233 72 -245 74 -5 1 -14 4 -20 7 -5 3 -32 12 -60 18 -27 7
-59 17 -70 23 -12 5 -30 11 -40 13 -11 2 -20 4 -20 5 0 1 -7 3 -16 5 -18 3
-284 84 -314 95 -11 4 -51 17 -90 28 -38 12 -129 39 -200 61 -72 22 -153 43
-180 46 -28 3 -70 8 -95 10 -25 3 -67 7 -95 10 -95 9 -170 16 -205 20 -19 2
-69 7 -110 11 -41 3 -88 8 -105 11 -43 5 -282 13 -286 8z"/>
</g>
</svg>
