<?xml version="1.0" standalone="no"?>
<!DOCTYPE svg PUBLIC "-//W3C//DTD SVG 20010904//EN"
 "http://www.w3.org/TR/2001/REC-SVG-20010904/DTD/svg10.dtd">
<svg version="1.0" xmlns="http://www.w3.org/2000/svg"
 width="512.000000pt" height="512.000000pt" viewBox="0 0 512.000000 512.000000"
 preserveAspectRatio="xMidYMid meet">
<metadata>
Created by potrace 1.11, written by Peter Selinger 2001-2013
</metadata>
<g transform="translate(0.000000,512.000000) scale(0.100000,-0.100000)"
fill="#000000" stroke="none">
<path d="M2460 5057 c-4 -4 -99 -16 -150 -19 -86 -5 -534 -118 -594 -150 -11
-6 -22 -11 -23 -10 -2 1 -5 1 -8 1 -12 -3 -21 -6 -35 -11 -45 -17 -249 -87
-270 -93 -14 -4 -61 -24 -105 -45 -44 -20 -83 -37 -87 -39 -51 -15 -297 -162
-306 -183 -2 -5 -9 -8 -15 -8 -7 0 -62 -51 -124 -113 -120 -119 -270 -312
-310 -397 -4 -8 -28 -51 -53 -95 -57 -100 -138 -281 -185 -416 -38 -106 -104
-344 -109 -389 -4 -31 -17 -118 -23 -145 -10 -51 -17 -163 -17 -295 0 -174 9
-297 29 -400 3 -14 8 -38 10 -55 3 -16 8 -43 11 -60 9 -45 73 -271 86 -302 6
-16 16 -41 23 -58 7 -16 21 -52 31 -80 22 -61 151 -315 187 -370 15 -22 37
-56 51 -75 13 -19 24 -39 24 -43 1 -4 7 -14 14 -22 7 -8 18 -20 23 -27 144
-184 298 -337 430 -426 39 -25 72 -49 75 -52 10 -10 69 -50 75 -50 3 0 54 -32
113 -71 127 -84 334 -187 452 -226 47 -15 88 -26 93 -25 4 1 7 -3 7 -8 0 -6 7
-10 15 -10 8 0 23 -4 33 -10 35 -19 241 -90 332 -113 97 -26 127 -32 215 -43
28 -3 53 -8 57 -10 9 -6 304 -5 348 0 19 3 67 7 105 10 39 3 81 8 95 11 25 6
46 9 123 20 94 13 296 71 447 128 96 36 299 139 383 195 40 26 79 51 87 55 8
4 67 43 130 87 154 108 286 225 365 325 22 28 42 52 45 55 18 17 74 97 122
175 170 275 275 522 328 770 11 54 30 176 36 240 5 53 5 371 0 415 -14 124
-25 184 -72 390 -3 14 -22 77 -43 140 -21 63 -57 172 -79 241 -23 69 -55 156
-72 193 -16 38 -30 74 -30 81 0 7 -4 15 -8 17 -4 2 -23 35 -42 73 -36 73 -99
186 -109 195 -7 6 -24 33 -47 74 -29 53 -166 220 -258 315 -111 114 -251 222
-394 303 -107 61 -244 128 -261 128 -5 0 -11 4 -13 9 -5 14 -258 98 -378 126
-58 13 -125 31 -148 39 -23 8 -43 15 -45 15 -1 -1 -42 11 -92 27 -49 15 -92
28 -95 29 -3 1 -32 9 -65 19 -70 21 -87 25 -140 30 -106 12 -191 17 -195 13z"/>
</g>
</svg>
